<svg width="20" height="20" viewBox="0 0 20 20" fill="none" xmlns="http://www.w3.org/2000/svg">
<path d="M18.3204 9.06825C17.8603 9.06825 17.4871 8.69502 17.4871 8.23496C17.4871 5.89747 16.577 3.70081 14.9245 2.04737C14.5987 1.7216 14.5987 1.19502 14.9245 0.869087C15.2503 0.543312 15.777 0.543312 16.1028 0.869087C18.0704 2.83656 19.1536 5.45252 19.1536 8.23496C19.1536 8.69502 18.7804 9.06825 18.3204 9.06825Z" fill="#C2D0E2"/>
<path d="M1.65359 9.06825C1.1937 9.06825 0.820312 8.69502 0.820312 8.23496C0.820312 5.45252 1.90369 2.83656 3.87115 0.869087C4.19693 0.543312 4.72366 0.543312 5.04944 0.869087C5.37537 1.19502 5.37537 1.7216 5.04944 2.04737C3.39691 3.6999 2.48703 5.89747 2.48703 8.23496C2.48703 8.69502 2.11365 9.06825 1.65359 9.06825Z" fill="#C2D0E2"/>
<path d="M17.8029 14.0942C16.5428 13.0292 15.8203 11.4725 15.8203 9.8233V7.5C15.8203 4.56757 13.6419 2.14005 10.8203 1.7334V0.833282C10.8203 0.372467 10.4469 0 9.987 0C9.52695 0 9.15356 0.372467 9.15356 0.833282V1.7334C6.33115 2.14005 4.15356 4.56757 4.15356 7.5V9.8233C4.15356 11.4725 3.43106 13.0292 2.16367 14.1008C1.83942 14.3784 1.65356 14.7816 1.65356 15.2083C1.65356 16.0126 2.30771 16.6667 3.112 16.6667H16.862C17.6661 16.6667 18.3203 16.0126 18.3203 15.2083C18.3203 14.7816 18.1344 14.3784 17.8029 14.0942Z" fill="#C2D0E2"/>
<path d="M9.98697 20C11.4961 20 12.7586 18.9241 13.0486 17.5H6.92529C7.21521 18.9241 8.47772 20 9.98697 20Z" fill="#C2D0E2"/>
</svg>
