<svg width="14" height="18" viewBox="0 0 14 18" fill="none" xmlns="http://www.w3.org/2000/svg">
<path d="M13.0519 11.9884V3.24002C13.0519 1.94978 12.0021 0.900024 10.7119 0.900024H1.37293C1.13809 0.900024 0.948242 1.08987 0.948242 1.32472V13.9037C0.948242 14.1385 1.13879 14.3283 1.37293 14.3283H3.94207V16.6642C3.94207 16.8119 4.01871 16.949 4.14528 17.0263C4.27114 17.1037 4.42863 17.11 4.56012 17.0425L6.01278 16.3L7.48793 17.0537C7.5484 17.0847 7.61449 17.1001 7.68129 17.1001C7.75863 17.1001 7.83527 17.079 7.90278 17.0376C8.02864 16.9602 8.10598 16.8231 8.10598 16.6755V14.3284H10.7124C12.0019 14.3284 13.0517 13.2787 13.0517 11.9884L13.0519 11.9884ZM3.17797 13.479H1.79773V1.74948H3.17797V13.479ZM7.25677 15.9814L6.20631 15.4449C6.08467 15.383 5.94123 15.383 5.8196 15.4449L4.79164 15.9701V14.3283H7.25674L7.25677 15.9814ZM12.2026 11.9882C12.2026 12.8102 11.534 13.4789 10.712 13.4789H4.02664L4.02734 1.74934H10.7127C11.5347 1.74934 12.2033 2.418 12.2033 3.23995L12.2026 11.9882Z" fill="#9CAAB9"/>
<path d="M10.1101 4.97607H6.15565C5.95386 4.97607 5.79004 5.1399 5.79004 5.34169C5.79004 5.54349 5.95387 5.70731 6.15565 5.70731H10.1108C10.3126 5.70731 10.4764 5.54348 10.4764 5.34169C10.4757 5.13919 10.3119 4.97607 10.1101 4.97607Z" fill="#9CAAB9"/>
<path d="M10.1101 6.73376H6.15565C5.95386 6.73376 5.79004 6.89759 5.79004 7.09938C5.79004 7.30117 5.95387 7.465 6.15565 7.465H10.1108C10.3126 7.465 10.4764 7.30117 10.4764 7.09938C10.4757 6.89688 10.3119 6.73376 10.1101 6.73376Z" fill="#9CAAB9"/>
</svg>
