<svg width="18" height="18" viewBox="0 0 18 18" fill="none" xmlns="http://www.w3.org/2000/svg">
<path d="M9 16.5002C13.1422 16.5002 16.5002 13.1422 16.5002 9C16.5002 4.85784 13.1422 1.49976 9 1.49976C4.85784 1.49976 1.49976 4.85784 1.49976 9C1.49976 13.1422 4.85784 16.5002 9 16.5002ZM8.62524 9V5.24736C8.62524 4.83532 8.28914 4.49995 7.875 4.49995C7.45805 4.49995 7.12476 4.83464 7.12476 5.24736V9.75222C7.12476 9.95823 7.20914 10.1453 7.34485 10.2803C7.48125 10.4167 7.66969 10.4997 7.87711 10.4997H11.6227C12.039 10.4997 12.3751 10.1643 12.3751 9.75011C12.3751 9.33246 12.0383 8.99987 11.6227 8.99987L8.62524 9ZM9 18C4.02966 18 0 13.9703 0 9C0 4.02966 4.02966 0 9 0C13.9703 0 18 4.02966 18 9C18 13.9703 13.9703 18 9 18Z" fill="#9CAAB9"/>
</svg>
