<svg width="32" height="32" viewBox="0 0 32 32" fill="none" xmlns="http://www.w3.org/2000/svg">
<path d="M11.8358 22.9854C11.7887 22.9727 11.7405 22.9654 11.6919 22.963C12.4054 22.2481 12.8448 21.2824 12.8448 20.2202V16.9536C12.8448 16.9237 12.8418 16.8946 12.8375 16.8659C12.8418 16.807 12.8448 16.7476 12.8448 16.6876V14.6209C12.8448 14.278 12.5532 14 12.1935 14H7.82487C5.98522 14 4.48862 15.4268 4.48862 17.1804V20.2202C4.48862 21.2824 4.92794 22.2481 5.64146 22.963C5.593 22.9654 5.5448 22.9727 5.49778 22.9854C2.41984 23.2511 0 25.7242 0 28.7264V31.3791C0 31.722 0.291595 32 0.651318 32H16.682C17.0417 32 17.3333 31.722 17.3333 31.3791V28.7264C17.3333 25.7243 14.9136 23.2512 11.8358 22.9854ZM5.79126 17.9678V17.1804C5.79126 16.1114 6.70356 15.2417 7.82487 15.2417H11.5421V16.6876C11.5421 17.4154 10.921 18.0076 10.1574 18.0076H5.79126V17.9678ZM5.79126 19.2494H10.1574C10.6636 19.2494 11.1375 19.1151 11.5421 18.8822V20.2201C11.5421 21.7316 10.2522 22.9613 8.6667 22.9613C7.0812 22.9613 5.79126 21.7316 5.79126 20.2201V19.2494ZM10.0843 24.2031L8.6667 25.5546L7.24911 24.2031H10.0843ZM16.0308 30.7582H1.30264V29.5164H4.00561C4.36533 29.5164 4.65692 29.2384 4.65692 28.8955C4.65692 28.5526 4.36533 28.2746 4.00561 28.2746H1.32641C1.54519 26.1812 3.26773 24.5047 5.44632 24.2407L8.20615 26.8716C8.32827 26.9881 8.49397 27.0535 8.6667 27.0535C8.83943 27.0535 9.00512 26.9881 9.12725 26.8716L11.8871 24.2407C14.2204 24.5234 16.0308 26.4265 16.0308 28.7264V30.7582Z" fill="#00AFA0"/>
<path d="M26.5019 8.9855C26.4548 8.97271 26.4066 8.96551 26.358 8.96303C27.0714 8.24819 27.5107 7.28251 27.5107 6.22027V2.95361C27.5107 2.92374 27.5077 2.89462 27.5035 2.86594C27.5078 2.80695 27.5107 2.7476 27.5107 2.68762V0.620897C27.5107 0.277976 27.2191 0 26.8594 0H22.4909C20.6512 0 19.1546 1.42676 19.1546 3.18042V6.22021C19.1546 7.28244 19.5939 8.24813 20.3074 8.96296C20.2589 8.96545 20.2105 8.97265 20.1634 8.98544C17.0857 9.25125 14.666 11.7243 14.666 14.7264V17.379C14.666 17.722 14.9576 18 15.3173 18L25.6814 17.9542C26.0411 17.9542 26.3327 17.6763 26.3327 17.3333C26.3327 16.9904 26.0411 16.7124 25.6814 16.7124L15.9686 16.7581V14.7264C15.9686 12.4266 17.779 10.5235 20.1123 10.2408L22.8721 12.8717C22.9993 12.993 23.1659 13.0536 23.3326 13.0536C23.4993 13.0536 23.666 12.993 23.7932 12.8717L26.553 10.2408C28.8864 10.5235 30.6967 12.4266 30.6967 14.7264V16.7582H25.8987C25.5389 16.7582 25.2474 17.0362 25.2474 17.3791C25.2474 17.722 25.5389 18 25.8987 18H31.348C31.7078 18 31.9993 17.722 31.9993 17.3791V14.7264C31.9993 11.7244 29.5796 9.25131 26.5019 8.9855ZM23.3327 11.5546L21.9152 10.2032H24.7503L23.3327 11.5546ZM26.2082 6.22021C26.2082 7.73166 24.9182 8.96135 23.3327 8.96135C21.7473 8.96135 20.4573 7.73172 20.4573 6.22027V5.24944H24.8235C25.3297 5.24944 25.8035 5.11514 26.2082 4.88224V6.22021ZM26.2082 2.68762C26.2082 3.41549 25.587 4.00764 24.8235 4.00764H20.4573V3.96784V3.18042C20.4573 2.11149 21.3696 1.24179 22.4909 1.24179H26.2082V2.68762Z" fill="#00AFA0"/>
<path d="M17.1456 8.43544L14.4641 5.91431V3.01418C14.4641 1.35216 13.0259 0 11.2582 0H3.20592C1.43817 0 0 1.35216 0 3.01418V8.31915C0 9.98117 1.43817 11.3333 3.20592 11.3333H11.2581C12.5837 11.3333 13.7396 10.5854 14.2246 9.46454H16.6921C16.9514 9.46454 17.1852 9.31763 17.2845 9.09241C17.3838 8.86719 17.3289 8.60785 17.1456 8.43544ZM13.7568 8.25886C13.4581 8.25886 13.1989 8.4528 13.1319 8.72655C12.9301 9.55147 12.1596 10.1277 11.2581 10.1277H3.20592C2.14527 10.1277 1.28237 9.31636 1.28237 8.31915V3.01418C1.28237 2.01697 2.14527 1.20567 3.20592 1.20567H11.2581C12.3187 1.20567 13.1816 2.01697 13.1816 3.01418V6.16401C13.1816 6.32388 13.2492 6.47724 13.3694 6.59027L15.1442 8.25886H13.7568Z" fill="#00AFA0"/>
<path d="M28.7934 20.6667H20.7413C19.4157 20.6667 18.2598 21.4146 17.7748 22.5355H15.3072C15.0479 22.5355 14.8141 22.6824 14.7148 22.9076C14.6156 23.1328 14.6705 23.3921 14.8538 23.5646L17.5353 26.0857V28.9858C17.5353 30.6478 18.9735 32 20.7412 32H28.7934C30.5612 32 31.9993 30.6478 31.9993 28.9858V23.6808C31.9993 22.0188 30.5612 20.6667 28.7934 20.6667ZM30.717 28.9858C30.717 29.983 29.8541 30.7943 28.7934 30.7943H20.7413C19.6806 30.7943 18.8177 29.983 18.8177 28.9858V25.836C18.8177 25.6761 18.7501 25.5228 18.6299 25.4097L16.8552 23.7411H18.2425C18.5412 23.7411 18.8004 23.5472 18.8674 23.2734C19.0692 22.4485 19.8398 21.8723 20.7413 21.8723H28.7934C29.8541 21.8723 30.717 22.6836 30.717 23.6808V28.9858Z" fill="#00AFA0"/>
<path d="M27.1457 24.182C26.8964 23.9393 26.4921 23.9393 26.2427 24.182L24.5454 25.8334L23.7561 25.0655C23.5067 24.8229 23.1024 24.8229 22.853 25.0655C22.6037 25.3081 22.6037 25.7015 22.853 25.9441L24.0938 27.1514C24.2185 27.2727 24.3819 27.3333 24.5453 27.3333C24.7087 27.3333 24.8722 27.2727 24.9968 27.1514L27.1457 25.0606C27.395 24.818 27.395 24.4246 27.1457 24.182Z" fill="#00AFA0"/>
<path d="M9.99278 4.12804C9.90187 2.9961 8.83881 2.08366 7.52002 2.00564C6.77222 1.96147 6.05941 2.178 5.51334 2.61554C4.97489 3.04694 4.66602 3.6569 4.66602 4.28892C4.66609 4.65358 5.01042 4.94912 5.4352 4.94912C5.85998 4.94912 6.20431 4.65358 6.20431 4.28898C6.20431 4.0176 6.33167 3.76609 6.56302 3.58072C6.79398 3.39562 7.09663 3.30373 7.41435 3.32287C7.9711 3.35581 8.41988 3.741 8.45826 4.21888C8.4971 4.70203 8.12808 5.12901 7.58086 5.2341C6.98188 5.34909 6.56356 5.79607 6.56356 6.32101V6.6732C6.56356 7.03779 6.90789 7.33333 7.33267 7.33333C7.75745 7.33333 8.10178 7.03779 8.10178 6.6732V6.4811C9.29343 6.17598 10.0798 5.21172 9.99278 4.12804Z" fill="#00AFA0"/>
<path d="M8.08851 8.24417C7.93351 8.08917 7.71851 8 7.49935 8C7.27935 8 7.06518 8.08917 6.91018 8.24417C6.75435 8.39917 6.66602 8.61417 6.66602 8.83333C6.66602 9.0525 6.75435 9.2675 6.91018 9.4225C7.06518 9.5775 7.27935 9.66667 7.49935 9.66667C7.71851 9.66667 7.93351 9.5775 8.08851 9.4225C8.24351 9.2675 8.33268 9.0525 8.33268 8.83333C8.33268 8.61417 8.24351 8.39917 8.08851 8.24417Z" fill="#00AFA0"/>
</svg>
