<svg width="16" height="16" viewBox="0 0 16 16" fill="none" xmlns="http://www.w3.org/2000/svg">
<g clip-path="url(#clip0)">
<path d="M14.1666 15.9996H1.83337C0.822021 15.9996 0 15.1776 0 14.1663V3.16626C0 2.15491 0.822021 1.33301 1.83337 1.33301H14.1666C15.178 1.33301 16 2.15491 16 3.16626V14.1663C16 15.1776 15.178 15.9996 14.1666 15.9996ZM1.83337 2.33301C1.37402 2.33301 1 2.70691 1 3.16626V14.1663C1 14.6256 1.37402 14.9996 1.83337 14.9996H14.1666C14.626 14.9996 15 14.6256 15 14.1663V3.16626C15 2.70691 14.626 2.33301 14.1666 2.33301H1.83337Z" fill="#9CBDD6"/>
<path d="M15.5 6.33301H0.5C0.223999 6.33301 0 6.10901 0 5.83301C0 5.55701 0.223999 5.33301 0.5 5.33301H15.5C15.776 5.33301 16 5.55701 16 5.83301C16 6.10901 15.776 6.33301 15.5 6.33301Z" fill="#9CBDD6"/>
<path d="M3.83398 4C3.55798 4 3.33398 3.776 3.33398 3.5V0.5C3.33398 0.223999 3.55798 0 3.83398 0C4.10999 0 4.33398 0.223999 4.33398 0.5V3.5C4.33398 3.776 4.10999 4 3.83398 4Z" fill="#9CBDD6"/>
<path d="M12.166 4C11.89 4 11.666 3.776 11.666 3.5V0.5C11.666 0.223999 11.89 0 12.166 0C12.442 0 12.666 0.223999 12.666 0.5V3.5C12.666 3.776 12.442 4 12.166 4Z" fill="#9CBDD6"/>
</g>
<defs>
<clipPath id="clip0">
<rect width="16" height="16" fill="white"/>
</clipPath>
</defs>
</svg>
