<svg width="29" height="32" viewBox="0 0 29 32" fill="none" xmlns="http://www.w3.org/2000/svg">
<path d="M26.3452 4.16141H25.9666C26.6883 2.98312 26.4218 1.40121 25.2636 0.539409C24.0157 -0.389075 22.2423 -0.0902053 21.3714 1.21502L19.4055 4.16147H2.51747C1.12933 4.16147 0 5.29408 0 6.68624V22.8281C0 24.2203 1.12933 25.3529 2.51747 25.3529H12.2961L11.5572 28.4651H9.96256C8.92328 28.4651 8.07775 29.313 8.07775 30.3553V30.75H6.11192C5.76774 30.75 5.48874 31.0299 5.48874 31.375C5.48874 31.7201 5.76774 32 6.11192 32H22.7508C23.095 32 23.374 31.7201 23.374 31.375C23.374 31.0299 23.095 30.75 22.7508 30.75H20.785V30.3553C20.785 29.313 19.9395 28.4651 18.9002 28.4651H17.3055L16.5667 25.3529H26.3453C27.7334 25.3529 28.8627 24.2203 28.8627 22.8281V19.2763V6.68618C28.8627 5.29402 27.7334 4.16141 26.3452 4.16141ZM17.4161 15.1487C16.4418 15.8327 14.6164 14.9029 12.8733 15.8358C12.4479 13.6199 12.7161 11.5358 14.9299 11.0759C15.2161 11.016 15.5241 10.989 15.7863 10.9942C16.5356 11.5518 17.2936 12.1157 18.0408 12.6718C18.3679 13.626 18.2451 14.5667 17.4161 15.1487ZM19.8082 9.76213L18.4516 11.4209C17.8931 11.0054 17.413 10.6481 16.8545 10.2325C16.9705 10.0587 17.9382 8.60833 18.0442 8.44952L19.8082 9.76213ZM22.4073 1.9102C22.8793 1.20265 23.842 1.03803 24.521 1.54333C25.2002 2.0487 25.3219 3.0203 24.7836 3.67848C23.8286 4.84615 21.5581 7.62241 20.5995 8.79458L18.738 7.40948L22.4073 1.9102ZM19.5386 30.3553V30.75H9.32411V30.3553C9.32411 30.0023 9.61053 29.7151 9.96256 29.7151H18.9001C19.2522 29.7151 19.5386 30.0023 19.5386 30.3553ZM16.0243 28.4651H12.8384L13.5773 25.3529H15.2854L16.0243 28.4651ZM27.6164 22.8281C27.6164 23.531 27.0462 24.1029 26.3453 24.1029C25.356 24.1029 3.62979 24.1029 2.51753 24.1029C1.81664 24.1029 1.2463 23.531 1.2463 22.8281V19.9013H8.04684C8.39102 19.9013 8.67002 19.6214 8.67002 19.2763C8.67002 18.9312 8.39102 18.6513 8.04684 18.6513H1.2463V6.68618C1.2463 5.98325 1.81651 5.41139 2.51741 5.41139H18.5715C17.9745 6.30619 16.2328 8.91664 15.6811 9.74344C14.4598 9.7545 13.2406 10.1812 12.4424 11.1157C11.3562 12.3872 11.1654 14.3852 11.8752 17.054C11.9966 17.5104 12.5644 17.6739 12.9079 17.3447C14.5193 15.8006 16.5262 17.4849 18.3234 16.0261C19.4204 15.1355 19.68 13.7196 19.2664 12.3956C19.8255 11.7119 24.4178 6.09675 24.9783 5.41139H26.3452C27.046 5.41139 27.6164 5.98325 27.6164 6.68618V18.6512H8.01257C7.66838 18.6512 7.38938 18.9311 7.38938 19.2762C7.38938 19.6213 7.66838 19.9012 8.01257 19.9012H27.6164V22.8281Z" fill="#00AFA0"/>
</svg>
