<svg width="23" height="23" viewBox="0 0 23 23" fill="none" xmlns="http://www.w3.org/2000/svg">
<path d="M4.8621 4.68367V0.646872C4.8621 0.28968 4.57242 0 4.21523 0C3.85804 0 3.56836 0.28968 3.56836 0.646872V4.68367C3.56836 5.04086 3.85804 5.33054 4.21523 5.33054C4.57242 5.33054 4.8621 5.04086 4.8621 4.68367Z" fill="#45338E"/>
<path d="M14.8992 4.68367V0.646872C14.8992 0.28968 14.6095 0 14.2523 0C13.8961 0 13.6055 0.28968 13.6055 0.646872V4.68367C13.6055 5.04086 13.8951 5.33054 14.2523 5.33054C14.6095 5.33054 14.8992 5.04086 14.8992 4.68367Z" fill="#45338E"/>
<path d="M9.88163 4.68367V0.646872C9.88163 0.28968 9.59195 0 9.23476 0C8.87757 0 8.58789 0.28968 8.58789 0.646872V4.68367C8.58789 5.04086 8.87757 5.33054 9.23476 5.33054C9.59195 5.33054 9.88163 5.04086 9.88163 4.68367Z" fill="#45338E"/>
<path d="M12.0226 17.5308H2.43192C1.80754 17.5308 1.29473 17.018 1.29473 16.3936L1.29379 8.38645H17.1751V12.1787C17.3982 12.1562 17.5988 12.1337 17.8219 12.1337C18.0451 12.1337 18.2457 12.1562 18.4688 12.1787V4.92901C18.4688 3.59026 17.3757 2.49805 16.0379 2.49805C15.6807 2.49805 15.391 2.78773 15.391 3.14492C15.391 3.50211 15.6807 3.79179 16.0379 3.79179C16.6622 3.79179 17.175 4.3046 17.175 4.92898V7.09273H1.29377V4.92898C1.29377 4.3046 1.80658 3.79179 2.43096 3.79179C2.78815 3.79179 3.07783 3.50211 3.07783 3.14492C3.07783 2.78773 2.78815 2.49805 2.43096 2.49805C1.09315 2.49805 0 3.59024 0 4.92901V16.3938C0 17.7326 1.09313 18.8248 2.43096 18.8248H12.0665C12.0215 18.5566 11.9999 18.267 11.9999 17.9773C11.9999 17.8217 11.9999 17.6651 12.0224 17.531L12.0226 17.5308Z" fill="#45338E"/>
<path d="M7.24969 3.79179C7.60688 3.79179 7.89656 3.50211 7.89656 3.14492C7.89656 2.78773 7.60688 2.49805 7.24969 2.49805H6.20156C5.84437 2.49805 5.55469 2.78773 5.55469 3.14492C5.55469 3.50211 5.84437 3.79179 6.20156 3.79179H7.24969Z" fill="#45338E"/>
<path d="M12.2673 3.79179C12.6245 3.79179 12.9141 3.50211 12.9141 3.14492C12.9141 2.78773 12.6245 2.49805 12.2673 2.49805H11.2191C10.8619 2.49805 10.5723 2.78773 10.5723 3.14492C10.5723 3.50211 10.8619 3.79179 11.2191 3.79179H12.2673Z" fill="#45338E"/>
<path d="M17.823 13.4492C15.3246 13.4492 13.2949 15.4789 13.2949 17.9773C13.2949 20.4757 15.3246 22.5054 17.823 22.5054C20.3214 22.5054 22.3511 20.4757 22.3511 17.9773C22.3511 15.4799 20.3214 13.4492 17.823 13.4492ZM17.823 21.2118C16.0389 21.2118 14.5885 19.7624 14.5885 17.9773C14.5885 16.1932 16.0379 14.7428 17.823 14.7428C19.6071 14.7428 21.0575 16.1922 21.0575 17.9773C21.0575 19.7624 19.6072 21.2118 17.823 21.2118Z" fill="#45338E"/>
<path d="M19.0937 17.3308H18.4693V16.7064C18.4693 16.3492 18.1796 16.0596 17.8224 16.0596C17.4652 16.0596 17.1756 16.3492 17.1756 16.7064V17.3308H16.5512C16.194 17.3308 15.9043 17.6205 15.9043 17.9777C15.9043 18.3349 16.194 18.6246 16.5512 18.6246H17.1756V19.249C17.1756 19.6061 17.4652 19.8958 17.8224 19.8958C18.1796 19.8958 18.4693 19.6061 18.4693 19.249V18.6246H19.0937C19.4509 18.6246 19.7406 18.3349 19.7406 17.9777C19.7406 17.6214 19.4509 17.3308 19.0937 17.3308Z" fill="#45338E"/>
</svg>
