<svg width="16" height="13" viewBox="0 0 16 13" fill="none" xmlns="http://www.w3.org/2000/svg">
<path d="M5.17686 0.817383C4.57312 0.817383 3.9875 1.02237 3.51495 1.39738C3.04246 1.77301 2.71059 2.29737 2.57371 2.88487H0.614364C0.27499 2.88487 0 3.15988 0 3.49924C0 3.8386 0.275006 4.11424 0.614364 4.11424H2.57371C2.76059 4.90112 3.29308 5.56111 4.02308 5.90991C4.75245 6.25866 5.60057 6.25866 6.33058 5.90991C7.05996 5.56116 7.59245 4.90117 7.77933 4.11424H15.3855C15.7249 4.11424 15.9999 3.83861 15.9999 3.49924C15.9999 3.15986 15.7249 2.88487 15.3855 2.88487H7.77933C7.64245 2.29737 7.31058 1.77301 6.83809 1.39738C6.36559 1.02237 5.77996 0.817383 5.17682 0.817383H5.17686ZM5.17686 4.95304V4.95241C4.59188 4.95241 4.06437 4.60054 3.84062 4.05992C3.61687 3.51992 3.74062 2.89806 4.15436 2.4843C4.56748 2.07056 5.18998 1.9468 5.72998 2.17056C6.2706 2.3943 6.62247 2.9218 6.62247 3.50681C6.62247 3.88992 6.4706 4.25805 6.19935 4.52929C5.92811 4.80054 5.55998 4.95241 5.17686 4.95241V4.95304Z" fill="#45338E"/>
<path d="M10.845 6.81787C10.2412 6.8185 9.65624 7.02286 9.18372 7.39849C8.7106 7.7735 8.37936 8.29786 8.24248 8.88536H0.614364C0.27499 8.88536 0 9.16099 0 9.50037C0 9.83974 0.275006 10.1147 0.614364 10.1147H8.22056C8.40744 10.9016 8.93993 11.5616 9.6693 11.9104C10.3993 12.2592 11.2474 12.2592 11.9768 11.9104C12.7068 11.5617 13.2393 10.9017 13.4262 10.1147H15.3855C15.7249 10.1147 15.9999 9.83973 15.9999 9.50037C15.9999 9.16101 15.7249 8.88536 15.3855 8.88536H13.4262C13.2899 8.30162 12.9612 7.78038 12.4931 7.40537C12.0249 7.03037 11.4449 6.8235 10.8449 6.81787H10.845ZM10.845 10.9391C10.26 10.9391 9.73312 10.5866 9.50936 10.0466C9.285 9.50602 9.40874 8.88415 9.82248 8.47039C10.2362 8.05727 10.8581 7.93351 11.3981 8.15727C11.9387 8.38101 12.2912 8.90789 12.2912 9.4929C12.2912 9.87664 12.1387 10.2441 11.8675 10.5154C11.5962 10.7866 11.2287 10.9391 10.845 10.9391Z" fill="#45338E"/>
</svg>
