<svg width="22" height="21" viewBox="0 0 22 21" fill="none" xmlns="http://www.w3.org/2000/svg">
<path d="M8.03344 20.3818L8.02881 20.383L8.03344 20.3818Z" fill="#9CAAB9" stroke="#9CAAB9" stroke-width="0.3"/>
<path d="M4.62329 5.28418H4.62407H4.62329Z" fill="#9CAAB9" stroke="#9CAAB9" stroke-width="0.3"/>
<path d="M6.24971 6.17058C6.08131 5.60027 5.56046 5.23047 4.99364 5.23047C4.87125 5.23047 4.74624 5.24783 4.62384 5.28429H4.62297C4.05266 5.45269 3.68286 5.97353 3.68286 6.54036C3.68286 6.66275 3.70022 6.78776 3.73668 6.91103L3.89727 7.45703C4.06567 8.02734 4.58652 8.39714 5.15334 8.39714C5.27574 8.39714 5.40074 8.37978 5.52314 8.34332C6.09345 8.17492 6.46325 7.65407 6.46325 7.08725C6.46325 6.96485 6.44589 6.83985 6.40943 6.71658L6.24971 6.17058ZM5.34173 7.72441C5.27836 7.74351 5.21586 7.75132 5.15336 7.75132C4.8669 7.75132 4.60127 7.56382 4.51621 7.27389L4.35561 6.72789C4.33652 6.66452 4.32871 6.60202 4.32871 6.53952C4.32871 6.25306 4.51621 5.98743 4.80613 5.90237H4.807C4.8695 5.88327 4.932 5.87546 4.9945 5.87546C5.28096 5.87546 5.54659 6.06296 5.63165 6.35288L5.79224 6.89888C5.81134 6.96225 5.81915 7.02475 5.81915 7.08725C5.81915 7.37372 5.63165 7.63934 5.34173 7.72441H5.34173Z" fill="#9CAAB9" stroke="#9CAAB9" stroke-width="0.3"/>
<path d="M15.6347 4.53387L15.0228 2.4566C14.8491 1.86285 14.488 1.37153 14.0245 1.03211C13.5618 0.690956 12.995 0.5 12.4038 0.5C12.1478 0.5 11.8865 0.536458 11.6286 0.61198H11.6295L10.6486 0.895825H10.6469L8.10508 1.64409L2.95574 3.15452C2.36111 3.32813 1.8698 3.68923 1.53038 4.15279C1.19098 4.61545 1 5.1823 1 5.77345C1 6.03039 1.03646 6.29081 1.11198 6.54863L4.63532 18.5382C4.98341 19.724 6.06588 20.4991 7.24554 20.4991C7.50597 20.4991 7.77072 20.4609 8.03201 20.382L10.5016 19.6606C11.3375 20.191 12.3288 20.5 13.3931 20.5C16.38 20.5 18.8002 18.0789 18.8011 15.0929C18.8011 14.8342 18.782 14.5799 18.7465 14.3307C20.1136 13.3446 21 11.7429 21 9.94005C20.9991 6.97383 18.5947 4.55715 15.6344 4.53382L15.6347 4.53387ZM11.8092 1.23098H11.81C12.0088 1.17282 12.2076 1.14504 12.4038 1.14504C12.8543 1.14504 13.2892 1.29174 13.6434 1.55129C13.9976 1.81171 14.271 2.18235 14.4047 2.63809L14.9732 4.56865C14.0036 4.67976 13.1121 5.04607 12.369 5.59989L11.1399 1.42455L11.8092 1.23098ZM10.4151 8.38032L8.5965 2.17187L10.5201 1.60502L11.83 6.05814C11.1781 6.69183 10.6842 7.48783 10.4151 8.38014L10.4151 8.38032ZM7.84814 19.7641L7.84467 19.765C7.64415 19.8257 7.44276 19.8544 7.24485 19.8544C6.34814 19.8544 5.51916 19.2632 5.25354 18.357L1.73086 6.36742C1.6727 6.1695 1.64493 5.96984 1.64493 5.77366C1.64493 5.32315 1.79163 4.88824 2.05117 4.53408C2.31159 4.1799 2.68224 3.90648 3.13797 3.77366L7.97731 2.35439L10.1865 9.89529L10.1856 9.94043C10.1856 10.193 10.2021 10.4483 10.2421 10.7009C8.87663 11.6818 7.98607 13.2833 7.98607 15.0942C7.98607 16.7261 8.71003 18.188 9.85325 19.1793L7.84814 19.7641ZM16.7604 18.4603C15.8975 19.3223 14.7092 19.8552 13.3933 19.8552C12.415 19.8552 11.507 19.5601 10.7508 19.0549L10.7213 19.0358C10.4713 18.8657 10.2387 18.6738 10.0251 18.4603C9.16314 17.5974 8.63017 16.4091 8.63017 15.0932C8.63017 13.7773 9.16228 12.5887 10.0251 11.7261C10.2352 11.516 10.4661 11.325 10.7126 11.1575C10.7586 11.1401 10.7994 11.1141 10.8316 11.0802C11.5711 10.6071 12.4487 10.3319 13.3931 10.3319C14.7091 10.3319 15.8976 10.8641 16.7602 11.7269C17.4252 12.3927 17.8931 13.253 18.0727 14.2147L18.0831 14.272C18.13 14.5393 18.1552 14.8136 18.1552 15.094C18.1552 16.4091 17.6231 17.5976 16.7602 18.4602L16.7604 18.4603ZM18.5989 13.6314C17.9609 11.3554 15.8731 9.68606 13.3931 9.68606C12.4721 9.68606 11.6058 9.91697 10.8462 10.3223C10.8358 10.1965 10.8306 10.0689 10.8306 9.94039C10.8306 8.6279 11.3619 7.4395 12.2238 6.57572C12.2759 6.52364 12.3289 6.47242 12.3836 6.42294L12.4339 6.37867C13.2143 5.68596 14.2204 5.24498 15.3324 5.18509C15.3818 5.19551 15.4348 5.19551 15.4869 5.18075C15.5225 5.17988 15.5572 5.17815 15.5928 5.17815C16.9044 5.17815 18.0937 5.71199 18.9574 6.57573C19.8212 7.43944 20.355 8.62869 20.355 9.9404C20.355 11.4256 19.6736 12.7528 18.599 13.6313L18.5989 13.6314Z" fill="#9CAAB9" stroke="#9CAAB9" stroke-width="0.3"/>
<path d="M14.6073 16.9211C14.4241 16.968 14.2366 17.0001 14.0422 17.0001C13.5847 17.0001 13.182 16.8456 12.9007 16.6086C12.6186 16.3708 12.4615 16.0635 12.4615 15.7293V15.4151H13.8547C14.0326 15.4151 14.1776 15.271 14.1776 15.0921C14.1776 14.9142 14.0335 14.7692 13.8547 14.7692H12.4615V14.4558C12.4623 14.1138 12.6194 13.8091 12.8998 13.5722C13.1802 13.3378 13.5839 13.185 14.0422 13.185C14.2488 13.185 14.4294 13.2084 14.5891 13.2588C14.7592 13.3126 14.9398 13.2189 14.9944 13.0496C15.0483 12.8794 14.9545 12.6989 14.7852 12.6442C14.5457 12.5678 14.2965 12.54 14.0422 12.54C13.4415 12.54 12.8929 12.738 12.4866 13.0765C12.0804 13.4133 11.8156 13.9046 11.8165 14.455V14.7692H11.2201C11.0422 14.7692 10.8972 14.9133 10.8972 15.0921C10.8972 15.2701 11.0413 15.415 11.2201 15.415H11.8165V15.7293C11.8156 16.2744 12.0812 16.764 12.4866 17.1026C12.892 17.4428 13.4406 17.6442 14.043 17.6451C14.3095 17.6451 14.5517 17.6008 14.7679 17.5461C14.9406 17.5019 15.0448 17.3265 15.0005 17.1538C14.9562 16.981 14.78 16.8769 14.6073 16.9211L14.6073 16.9211Z" fill="#9CAAB9" stroke="#9CAAB9" stroke-width="0.3"/>
</svg>
