<svg width="16" height="17" viewBox="0 0 16 17" fill="none" xmlns="http://www.w3.org/2000/svg">
<path d="M6.21934 14.4292L6.21725 14.4297L6.21934 14.4292Z" fill="#9CAAB9" stroke="#9CAAB9" stroke-width="0.15"/>
<path d="M4.17386 5.37036H4.17464H4.17386Z" fill="#9CAAB9" stroke="#9CAAB9" stroke-width="0.15"/>
<path d="M5.14979 5.90196C5.04875 5.55977 4.73624 5.33789 4.39615 5.33789C4.32271 5.33789 4.24771 5.34831 4.17427 5.37018H4.17375C3.83156 5.47122 3.60968 5.78373 3.60968 6.12382C3.60968 6.19726 3.6201 6.27226 3.64197 6.34622L3.73833 6.67383C3.83937 7.01601 4.15187 7.23789 4.49197 7.23789C4.56541 7.23789 4.64041 7.22748 4.71385 7.2056C5.05603 7.10456 5.27792 6.79205 5.27792 6.45196C5.27792 6.37852 5.2675 6.30352 5.24562 6.22956L5.14979 5.90196ZM4.605 6.83425C4.56698 6.84571 4.52948 6.8504 4.49198 6.8504C4.3201 6.8504 4.16073 6.7379 4.10969 6.56395L4.01333 6.23635C4.00187 6.19832 3.99719 6.16082 3.99719 6.12332C3.99719 5.95144 4.10969 5.79207 4.28364 5.74103H4.28416C4.32166 5.72957 4.35916 5.72488 4.39666 5.72488C4.56854 5.72488 4.72791 5.83738 4.77895 6.01134L4.87531 6.33894C4.88677 6.37696 4.89146 6.41446 4.89146 6.45196C4.89146 6.62384 4.77895 6.78321 4.605 6.83425H4.605Z" fill="#9CAAB9" stroke="#9CAAB9" stroke-width="0.15"/>
<path d="M10.7808 4.92032L10.4137 3.67396C10.3095 3.31771 10.0928 3.02292 9.81469 2.81927C9.53709 2.61457 9.19698 2.5 8.84229 2.5C8.68865 2.5 8.53188 2.52187 8.37718 2.56719H8.3777L7.78916 2.73749H7.78811L6.26305 3.18646L3.17344 4.09271C2.81667 4.19688 2.52188 4.41354 2.31823 4.69167C2.11459 4.96927 2 5.30938 2 5.66407C2 5.81823 2.02187 5.97449 2.06719 6.12918L4.18119 13.3229C4.39004 14.0344 5.03953 14.4995 5.74733 14.4995C5.90358 14.4995 6.06243 14.4766 6.21921 14.4292L7.70094 13.9964C8.2025 14.3146 8.7973 14.5 9.43588 14.5C11.228 14.5 12.6802 13.0473 12.6807 11.2557C12.6807 11.1005 12.6692 10.9479 12.6479 10.7984C13.4682 10.2068 14 9.24577 14 8.16403C13.9995 6.38429 12.5568 4.93429 10.7807 4.92029L10.7808 4.92032ZM8.4855 2.93859H8.48602C8.60529 2.90369 8.72457 2.88702 8.84228 2.88702C9.11259 2.88702 9.37353 2.97505 9.58603 3.13077C9.79853 3.28703 9.96259 3.50941 10.0428 3.78285L10.3839 4.94119C9.80217 5.00785 9.26728 5.22764 8.82141 5.55993L8.08392 3.05473L8.4855 2.93859ZM7.64905 7.22819L6.5579 3.50312L7.71206 3.16301L8.498 5.83488C8.10685 6.2151 7.8105 6.6927 7.64904 7.22809L7.64905 7.22819ZM6.10889 14.0585L6.1068 14.059C5.98649 14.0954 5.86566 14.1126 5.74691 14.1126C5.20888 14.1126 4.71149 13.7579 4.55212 13.2142L2.43852 6.02045C2.40362 5.9017 2.38696 5.7819 2.38696 5.6642C2.38696 5.39389 2.47498 5.13294 2.6307 4.92045C2.78696 4.70794 3.00934 4.54389 3.28278 4.4642L6.18639 3.61263L7.51191 8.13717L7.51139 8.16426C7.51139 8.31582 7.52128 8.46895 7.54524 8.62051C6.72598 9.20906 6.19164 10.17 6.19164 11.2565C6.19164 12.2357 6.62602 13.1128 7.31195 13.7076L6.10889 14.0585ZM11.4562 13.2762C10.9385 13.7934 10.2255 14.1131 9.43596 14.1131C8.84898 14.1131 8.30418 13.9361 7.85049 13.6329L7.83278 13.6215C7.68278 13.5194 7.54319 13.4043 7.41507 13.2762C6.89789 12.7585 6.5781 12.0454 6.5781 11.2559C6.5781 10.4664 6.89737 9.75323 7.41507 9.23563C7.54112 9.10959 7.67966 8.995 7.82758 8.89448C7.85518 8.88407 7.87966 8.86844 7.89894 8.84813C8.34268 8.56428 8.86924 8.39917 9.43587 8.39917C10.2255 8.39917 10.9385 8.71844 11.4561 9.23614C11.8551 9.63562 12.1358 10.1518 12.2436 10.7288L12.2499 10.7632C12.278 10.9236 12.2931 11.0882 12.2931 11.2564C12.2931 12.0455 11.9738 12.7585 11.4561 13.2761L11.4562 13.2762ZM12.5593 10.3788C12.1765 9.01324 10.9239 8.01163 9.43588 8.01163C8.88328 8.01163 8.36348 8.15018 7.90774 8.39341C7.90149 8.31789 7.89837 8.24133 7.89837 8.16423C7.89837 7.37674 8.21711 6.6637 8.7343 6.14543C8.76555 6.11418 8.79732 6.08345 8.83013 6.05377L8.86034 6.0272C9.32857 5.61158 9.93222 5.34699 10.5994 5.31105C10.6291 5.3173 10.6609 5.3173 10.6921 5.30845C10.7135 5.30793 10.7343 5.30689 10.7557 5.30689C11.5426 5.30689 12.2562 5.62719 12.7745 6.14544C13.2927 6.66366 13.613 7.37721 13.613 8.16424C13.613 9.05539 13.2042 9.85171 12.5594 10.3788L12.5593 10.3788Z" fill="#9CAAB9" stroke="#9CAAB9" stroke-width="0.5"/>
<path d="M10.1645 12.3528C10.0546 12.3809 9.94207 12.4002 9.8254 12.4002C9.55092 12.4002 9.30926 12.3075 9.14051 12.1653C8.97124 12.0226 8.87696 11.8382 8.87696 11.6377V11.4491H9.7129C9.81967 11.4491 9.90664 11.3627 9.90664 11.2554C9.90664 11.1486 9.82019 11.0616 9.7129 11.0616H8.87696V10.8736C8.87748 10.6684 8.97176 10.4856 9.13999 10.3434C9.30822 10.2028 9.5504 10.1111 9.8254 10.1111C9.94936 10.1111 10.0577 10.1252 10.1535 10.1554C10.2556 10.1877 10.3639 10.1314 10.3968 10.0298C10.429 9.92777 10.3728 9.81943 10.2712 9.78662C10.1275 9.74079 9.978 9.72412 9.82539 9.72412C9.46498 9.72412 9.1358 9.84287 8.89206 10.046C8.64831 10.2481 8.48946 10.5429 8.48998 10.8731V11.0616H8.13216C8.02539 11.0616 7.93842 11.1481 7.93842 11.2554C7.93842 11.3621 8.02487 11.4491 8.13216 11.4491H8.48998V11.6377C8.48945 11.9648 8.64883 12.2585 8.89206 12.4616C9.13528 12.6658 9.46446 12.7866 9.82591 12.7872C9.9858 12.7872 10.1311 12.7606 10.2608 12.7278C10.3644 12.7012 10.4269 12.596 10.4004 12.4924C10.3738 12.3887 10.2681 12.3262 10.1645 12.3528L10.1645 12.3528Z" fill="#9CAAB9" stroke="#9CAAB9" stroke-width="0.15"/>
</svg>
