<svg width="16" height="17" viewBox="0 0 16 17" fill="none" xmlns="http://www.w3.org/2000/svg">
<circle cx="8" cy="8.5" r="6.425" stroke="#9CAAB9" stroke-width="1.15"/>
<path d="M10.3553 10.7435C10.1387 10.871 9.91113 10.9812 9.66282 11.053C9.07863 11.2219 8.50723 11.1733 8.06059 10.9745C7.61252 10.7749 7.29841 10.4405 7.17502 10.0138L7.059 9.61247L8.83817 9.0981C9.06541 9.0324 9.19733 8.79487 9.13131 8.56652C9.06561 8.33927 8.82808 8.20736 8.59973 8.27337L6.82057 8.78774L6.70487 8.38756C6.57971 7.95047 6.66786 7.50337 6.93843 7.09722C7.20995 6.69441 7.669 6.35028 8.2543 6.18107C8.51813 6.10479 8.75736 6.06806 8.9799 6.07339C9.21703 6.07931 9.41299 5.89293 9.42033 5.65657C9.42625 5.41944 9.23987 5.22348 9.00351 5.21614C8.66937 5.20704 8.34096 5.26354 8.01615 5.35745C7.24906 5.57922 6.62153 6.03451 6.22775 6.61683C5.83331 7.19691 5.67661 7.9221 5.8809 8.62456L5.99692 9.02586L5.23537 9.24603C5.00812 9.31173 4.8762 9.54926 4.94222 9.77761C5.00792 10.0049 5.24545 10.1368 5.4738 10.0708L6.23535 9.85058L6.35137 10.2519C6.55152 10.9483 7.07148 11.4755 7.71415 11.7582C8.35744 12.043 9.1324 12.0977 9.90202 11.8764C10.2423 11.778 10.5353 11.632 10.7911 11.4824C10.9953 11.3621 11.0636 11.0997 10.9433 10.8954C10.823 10.6912 10.5596 10.6232 10.3553 10.7435Z" fill="#9CAAB9" stroke="#9CAAB9" stroke-width="0.332328"/>
</svg>
