<svg width="16" height="16" viewBox="0 0 16 16" fill="none" xmlns="http://www.w3.org/2000/svg">
<path d="M6.95887 0.620117C3.36301 0.620117 0.439453 3.53882 0.439453 7.13396C0.439453 10.7291 3.36301 13.6534 6.95887 13.6534C8.06418 13.6534 9.10555 13.3749 10.0189 12.8884C10.1068 12.8455 10.1729 12.7688 10.2031 12.676C10.2333 12.5832 10.2242 12.482 10.1785 12.3962C10.1328 12.3097 10.054 12.2457 9.96051 12.219C9.86701 12.1923 9.76575 12.2042 9.68137 12.2527C9.36637 12.4208 9.03731 12.5607 8.69137 12.669C8.96277 12.3652 9.20466 11.9926 9.41137 11.5777C9.64973 11.0989 9.84521 10.5505 9.99637 9.95213L11.3295 14.9021C11.3668 15.0421 11.4849 15.1468 11.6283 15.1658C11.7725 15.1855 11.9138 15.1173 11.9876 14.9921L12.6401 13.8671L13.8551 15.2565C13.9198 15.3282 14.0105 15.3704 14.1061 15.3746C14.2025 15.3789 14.2967 15.3444 14.367 15.279L15.4245 14.3003C15.5679 14.1681 15.5799 13.9466 15.4526 13.7996L14.2489 12.4215L15.3457 11.9265C15.4695 11.8717 15.5525 11.7514 15.5595 11.6164C15.5665 11.4807 15.4969 11.3528 15.3795 11.2853L12.882 9.85653C13.2645 9.02754 13.4782 8.10574 13.4782 7.13403C13.4782 3.53889 10.5547 0.620186 6.95883 0.620186L6.95887 0.620117ZM6.59887 1.50323V4.44515H4.63003C4.76714 3.91219 4.94222 3.42774 5.14753 3.0164C5.56449 2.17969 6.07847 1.66781 6.59878 1.50329L6.59887 1.50323ZM7.31887 1.50323C7.83918 1.66776 8.35317 2.17964 8.77012 3.01635C8.97543 3.42769 9.15052 3.91214 9.28762 4.4451H7.31878L7.31887 1.50323ZM5.23195 1.60448C4.95844 1.91034 4.71445 2.27808 4.50634 2.69573C4.2518 3.2062 4.0479 3.80104 3.89322 4.44512H2.57697C2.48064 4.44371 2.38783 4.48098 2.31892 4.54848C2.25072 4.61668 2.21205 4.70879 2.21205 4.80512C2.21205 4.90145 2.25072 4.99356 2.31892 5.06176C2.38783 5.12926 2.48064 5.16653 2.57697 5.16512H3.74697C3.64361 5.78738 3.58385 6.44482 3.58385 7.13396C3.58385 7.82021 3.63869 8.48186 3.74135 9.1028H1.49693C1.27614 8.48897 1.15943 7.82452 1.15943 7.13396C1.15943 4.52882 2.87013 2.3366 5.23193 1.60454L5.23195 1.60448ZM8.68579 1.60448C10.1659 2.06363 11.3865 3.09652 12.0946 4.44506H10.0246C9.86994 3.80101 9.66604 3.20616 9.41152 2.69568C9.2034 2.27802 8.95941 1.91029 8.6859 1.60443L8.68579 1.60448ZM4.47829 5.16506H6.59887V9.10256H4.47271C4.36373 8.48945 4.30396 7.82568 4.30396 7.13372C4.30396 6.43973 4.36865 5.77951 4.47834 5.16488L4.47829 5.16506ZM7.31887 5.16506H9.43945C9.54914 5.7796 9.61383 6.43982 9.61383 7.1339C9.61383 7.82579 9.55406 8.48952 9.44508 9.10274H7.31892L7.31887 5.16506ZM10.1708 5.16506H12.4152C12.6374 5.7803 12.7583 6.44052 12.7583 7.1339C12.7583 7.97484 12.5741 8.7757 12.2521 9.4964L10.2721 8.36579C10.3115 7.96783 10.334 7.55438 10.334 7.1339C10.334 6.44484 10.2742 5.78741 10.1708 5.16506H10.1708ZM10.587 9.37814L14.4065 11.5662L13.5121 11.9656C13.4087 12.0127 13.3342 12.1055 13.3096 12.2159C13.285 12.3263 13.3145 12.4423 13.3883 12.5281L14.6764 14.0075L14.1533 14.5025L12.8483 13.0175C12.7717 12.9317 12.6592 12.8874 12.5446 12.898C12.43 12.9092 12.3273 12.9746 12.269 13.0737L11.8021 13.8781L10.587 9.37814ZM1.81762 9.82253H3.88762C4.04231 10.4715 4.25043 11.0642 4.50637 11.5775C4.71449 11.9952 4.95848 12.3692 5.23199 12.6744C3.7498 12.2139 2.52497 11.1761 1.81757 9.82249L1.81762 9.82253ZM4.63012 9.82253H6.59896V12.77C6.07866 12.6055 5.56467 12.088 5.14771 11.2513C4.94241 10.8392 4.76732 10.3555 4.63021 9.82253H4.63012ZM7.31896 9.82253H9.2878C9.15069 10.3555 8.97561 10.8392 8.7703 11.2513C8.35335 12.088 7.83936 12.6055 7.31905 12.77L7.31896 9.82253Z" fill="#9CAAB9"/>
</svg>
