<svg width="32" height="32" viewBox="0 0 32 32" fill="none" xmlns="http://www.w3.org/2000/svg">
<path d="M12.3285 23.3703L8.43993 18.5654C8.23384 18.3325 7.87027 18.3042 7.62793 18.5022C7.60432 18.5215 7.58231 18.5427 7.56224 18.5654L3.67372 23.3703C3.48533 23.6031 3.52894 23.9385 3.77107 24.1195C3.8687 24.1925 3.98883 24.2321 4.11256 24.232H5.77907V28.5031C5.77907 28.798 6.0278 29.037 6.33458 29.037H9.6676C9.97437 29.037 10.2231 28.798 10.2231 28.5031V24.232H11.8896C12.1964 24.2322 12.4453 23.9934 12.4455 23.6986C12.4455 23.5796 12.4044 23.4642 12.3285 23.3703ZM9.6676 23.1643C9.36082 23.1643 9.11209 23.4033 9.11209 23.6982V27.9693H6.89008V23.6982C6.89008 23.4033 6.64135 23.1643 6.33458 23.1643H5.24801L8.00109 19.7629L10.7542 23.1643H9.6676Z" fill="#00AFA0"/>
<path d="M31.4666 8.00014H28.7993V4.26674C28.7993 3.9722 28.5605 3.7334 28.2659 3.7334H12.2624V0.533343C12.2624 0.238804 12.0235 0 11.7289 0H3.19374C2.89914 0 2.66029 0.238804 2.66029 0.533343V17.2862C-0.757516 20.5263 -0.901081 25.9231 2.33976 29.3402C5.58053 32.7574 10.9784 32.9009 14.3962 29.6607C15.4219 28.6884 16.1898 27.4763 16.6308 26.1337H27.199C29.8491 26.1304 31.9968 23.9833 32 21.3336V8.53348C32 8.23894 31.7611 8.00014 31.4666 8.00014ZM3.72719 1.06669H11.1955V4.26674C11.1955 4.56128 11.4343 4.80008 11.7289 4.80008H27.7324V8.00014H6.92789C6.63329 8.00014 6.39444 8.23894 6.39444 8.53348V15.2147C5.4425 15.4583 4.54003 15.8652 3.72719 16.4173V1.06669ZM8.52823 30.9339C4.4036 30.9339 1.05994 27.5909 1.05994 23.4671C1.05994 19.3433 4.4036 16.0003 8.52823 16.0003C12.6529 16.0003 15.9965 19.3433 15.9965 23.4671C15.9921 27.589 12.651 30.9295 8.52823 30.9339ZM30.9331 21.3337C30.9308 23.3946 29.2603 25.0648 27.199 25.0671H16.9077C17.8181 20.47 14.8287 16.0053 10.2307 15.095C9.31861 14.9145 8.383 14.8849 7.46134 15.0077V9.06682H30.9331V21.3337Z" fill="#00AFA0"/>
<path d="M5.92542 1.77777H4.74023V2.96296H5.92542V1.77777Z" fill="#00AFA0"/>
<path d="M8.29651 1.77777H7.11133V2.96296H8.29651V1.77777Z" fill="#00AFA0"/>
<path d="M19.5553 10.6667H8.88867V11.8519H19.5553V10.6667Z" fill="#00AFA0"/>
</svg>
