<svg width="17" height="17" viewBox="0 0 17 17" fill="none" xmlns="http://www.w3.org/2000/svg">
<g clip-path="url(#clip0)">
<path d="M1.77082 7.4375C0.79475 7.4375 0 8.23225 0 9.20832V14.875C0 15.8511 0.79475 16.6458 1.77082 16.6458H3.89582C4.29462 16.6458 4.66152 16.5112 4.95832 16.2874V7.4375H1.77082Z" fill="#C2D0E2"/>
<path d="M17.0001 10.0937C17.0001 9.66801 16.8315 9.27133 16.5389 8.97878C16.8697 8.61683 17.0383 8.1316 16.9923 7.62658C16.9094 6.72627 16.0983 6.02077 15.1449 6.02077H10.7696C10.9863 5.36272 11.3334 4.15645 11.3334 3.18745C11.3334 1.65107 10.0279 0.354126 9.20839 0.354126C8.47244 0.354126 7.94684 0.768501 7.92419 0.785501C7.84062 0.852804 7.79175 0.954804 7.79175 1.06245V3.4644L5.75175 7.8837L5.66675 7.9269V15.5188C6.24332 15.7908 6.97289 15.9375 7.43757 15.9375H13.9394C14.7107 15.9375 15.3858 15.4175 15.5444 14.7C15.6259 14.331 15.5784 13.9591 15.4162 13.6361C15.9397 13.3726 16.2917 12.8335 16.2917 12.2187C16.2917 11.968 16.2344 11.7278 16.1253 11.5104C16.6487 11.2469 17.0001 10.7078 17.0001 10.0937Z" fill="#C2D0E2"/>
</g>
<defs>
<clipPath id="clip0">
<rect width="17" height="17" fill="white"/>
</clipPath>
</defs>
</svg>
