<svg width="16" height="17" viewBox="0 0 16 17" fill="none" xmlns="http://www.w3.org/2000/svg">
<path d="M6.67969 12.18C6.98635 12.5733 7.46635 12.8333 7.99969 12.8333C8.91969 12.8333 9.66635 12.0867 9.66635 11.1667C9.66635 10.7867 9.53969 10.4333 9.32635 10.1533" stroke="#45338E" stroke-width="1.5" stroke-linecap="round" stroke-linejoin="round"/>
<path d="M1.87967 14.3667C1.47301 13.86 1.33301 13.0534 1.33301 11.8334V10.5C1.33301 7.83335 1.99967 7.16669 4.66634 7.16669H11.333C11.573 7.16669 11.793 7.17335 11.9997 7.18669C14.113 7.30669 14.6663 8.07335 14.6663 10.5V11.8334C14.6663 14.5 13.9997 15.1667 11.333 15.1667H4.66634C4.42634 15.1667 4.20634 15.16 3.99967 15.1467" stroke="#45338E" stroke-width="1.5" stroke-linecap="round" stroke-linejoin="round"/>
<path d="M4 7.16665V5.83331C4 3.62665 4.66667 1.83331 8 1.83331C10.7667 1.83331 11.6933 2.75331 11.9333 4.20665" stroke="#45338E" stroke-width="1.5" stroke-linecap="round" stroke-linejoin="round"/>
<path d="M14.6663 1.83331L1.33301 15.1666" stroke="#45338E" stroke-width="1.5" stroke-linecap="round" stroke-linejoin="round"/>
</svg>
