<svg width="32" height="32" viewBox="0 0 32 32" fill="none" xmlns="http://www.w3.org/2000/svg">
<path d="M14 0H4.66669C2.09331 0 0 2.09331 0 4.66669V27.3334C0 29.9067 2.09331 32 4.66669 32H9.55556C9.92356 32 10.2222 31.7013 10.2222 31.3333C10.2222 30.9653 9.92356 30.6666 9.55556 30.6666H4.66669C2.82938 30.6666 1.33337 29.1706 1.33337 27.3333V4.66669C1.33337 2.82938 2.82938 1.33337 4.66669 1.33337H14C15.8373 1.33337 17.3333 2.82938 17.3333 4.66669V13.1112C17.3333 13.4792 17.632 13.7778 18 13.7778C18.368 13.7778 18.6667 13.4792 18.6667 13.1112V4.66669C18.6667 2.09331 16.5733 0 14 0Z" fill="#00AFA0"/>
<path d="M18 5.33334H0.666687C0.298688 5.33334 0 5.63203 0 6.00003C0 6.36803 0.298688 6.66672 0.666687 6.66672H18C18.368 6.66672 18.6667 6.36803 18.6667 6.00003C18.6667 5.63203 18.368 5.33334 18 5.33334Z" fill="#00AFA0"/>
<path d="M14.5965 24H0.81094C0.363315 24 0 24.2987 0 24.6667C0 25.0347 0.363315 25.3334 0.81094 25.3334H14.5965C15.0441 25.3334 15.4074 25.0347 15.4074 24.6667C15.4074 24.2987 15.0441 24 14.5965 24Z" fill="#00AFA0"/>
<path d="M11.3327 2.66666H7.3327C6.9647 2.66666 6.66602 2.96534 6.66602 3.33334C6.66602 3.70134 6.9647 3.99997 7.3327 3.99997H11.3327C11.7007 3.99997 11.9994 3.70128 11.9994 3.33328C11.9994 2.96528 11.7007 2.66666 11.3327 2.66666Z" fill="#00AFA0"/>
<path d="M14.0268 2.66666H14.0135C13.6455 2.66666 13.3535 2.96534 13.3535 3.33334C13.3535 3.70134 13.6588 3.99997 14.0268 3.99997C14.3948 3.99997 14.6935 3.70128 14.6935 3.33328C14.6935 2.96528 14.3948 2.66666 14.0268 2.66666Z" fill="#00AFA0"/>
<path d="M30.0948 17.6467L25.0815 12.1374C24.0895 11.1454 22.4735 11.144 21.4722 12.1454C21.1549 12.4627 20.9389 12.8427 20.8269 13.248C19.8296 12.4854 18.3909 12.56 17.4722 13.4787C17.1562 13.796 16.9402 14.176 16.8255 14.58C15.8282 13.8174 14.3895 13.892 13.4722 14.812C13.1615 15.1227 12.9482 15.4947 12.8322 15.888L10.4695 13.5254C9.47753 12.5334 7.86153 12.532 6.86022 13.5334C5.86691 14.5254 5.86691 16.1414 6.86022 17.1347L15.9375 26.212L10.5535 27.0573C9.09884 27.2653 8.00153 28.5293 8.00153 30C8.00153 31.1027 8.89884 32 10.0015 32H22.5735C24.5322 32 26.3735 31.2373 27.7588 29.852L29.8562 27.7547C31.2402 26.372 32.0015 24.532 32.0015 22.576C32.0015 20.7493 31.3242 18.9987 30.0948 17.6467ZM28.9135 26.812L26.8162 28.9093C25.6829 30.0426 24.1762 30.6666 22.5735 30.6666H10.0015C9.63353 30.6666 9.33484 30.3679 9.33484 29.9999C9.33484 29.1892 9.94016 28.4919 10.7508 28.3746L17.4375 27.3239C17.6855 27.2852 17.8895 27.1106 17.9682 26.8719C18.0455 26.6346 17.9829 26.3719 17.8055 26.1946L7.80153 16.1907C7.32822 15.7174 7.32822 14.948 7.80953 14.4667C8.04684 14.2307 8.35753 14.112 8.66822 14.112C8.97891 14.112 9.28953 14.2307 9.52691 14.468L16.1976 21.1387C16.4576 21.3987 16.8803 21.3987 17.1403 21.1387C17.2696 21.008 17.335 20.8374 17.335 20.6667C17.335 20.496 17.2697 20.3254 17.1403 20.196L14.4163 17.472C13.943 16.9987 13.943 16.2293 14.4243 15.748C14.8963 15.276 15.6683 15.276 16.1403 15.748L18.8643 18.472C19.1243 18.732 19.547 18.732 19.807 18.472C19.9363 18.3413 20.0017 18.1707 20.0017 18C20.0017 17.8293 19.9363 17.6587 19.8123 17.5347L18.4217 16.144C17.9483 15.6707 17.9483 14.9013 18.4297 14.42C18.9017 13.948 19.6737 13.948 20.1457 14.42L21.5363 15.8107C21.5377 15.812 21.5377 15.812 21.5377 15.812L21.539 15.8133C21.5403 15.8146 21.5403 15.8146 21.5403 15.8146C21.5416 15.8159 21.5416 15.8159 21.5416 15.8159H21.5429C21.5442 15.8159 21.5442 15.8172 21.5442 15.8172C21.8055 16.0639 22.2175 16.0599 22.4735 15.8039C22.7335 15.5439 22.7335 15.1212 22.4735 14.8612L22.4162 14.8039C22.1869 14.5746 22.0602 14.2692 22.0602 13.9452C22.0602 13.6212 22.1855 13.3172 22.4229 13.0799C22.8962 12.6079 23.6656 12.6092 24.1176 13.0572L29.1096 18.5439C30.1136 19.6492 30.6683 21.0812 30.6683 22.5759C30.6683 24.176 30.0455 25.68 28.9135 26.812Z" fill="#00AFA0"/>
</svg>
