<svg width="12" height="11" viewBox="0 0 12 11" fill="none" xmlns="http://www.w3.org/2000/svg">
<path d="M11.8082 5.03375L7.47456 0.700031C7.35085 0.576325 7.18598 0.508423 7.01017 0.508423C6.83417 0.508423 6.6694 0.576422 6.54569 0.700031L6.15223 1.09359C6.02862 1.2171 5.96052 1.38207 5.96052 1.55798C5.96052 1.73378 6.02862 1.90431 6.15223 2.02782L8.6804 4.56156H0.648286C0.286143 4.56156 0 4.84507 0 5.20731V5.7637C0 6.12594 0.286143 6.43803 0.648286 6.43803H8.70908L6.15233 8.98591C6.02872 9.10962 5.96062 9.27011 5.96062 9.44601C5.96062 9.62171 6.02872 9.78454 6.15233 9.90815L6.54579 10.3004C6.66949 10.4241 6.83427 10.4916 7.01027 10.4916C7.18607 10.4916 7.35095 10.4233 7.47466 10.2996L11.8083 5.96594C11.9323 5.84184 12.0005 5.67619 12 5.50009C12.0004 5.32341 11.9323 5.15765 11.8082 5.03375Z" fill="white"/>
</svg>
