<svg width="12" height="11" viewBox="0 0 12 11" fill="none" xmlns="http://www.w3.org/2000/svg">
<path d="M11.8082 5.03387L7.47456 0.700153C7.35085 0.576447 7.18598 0.508545 7.01017 0.508545C6.83417 0.508545 6.6694 0.576544 6.54569 0.700153L6.15223 1.09371C6.02862 1.21722 5.96052 1.3822 5.96052 1.5581C5.96052 1.7339 6.02862 1.90444 6.15223 2.02795L8.6804 4.56168H0.648286C0.286143 4.56168 0 4.84519 0 5.20743V5.76382C0 6.12606 0.286143 6.43815 0.648286 6.43815H8.70908L6.15233 8.98604C6.02872 9.10974 5.96062 9.27023 5.96062 9.44613C5.96062 9.62184 6.02872 9.78466 6.15233 9.90827L6.54579 10.3006C6.66949 10.4243 6.83427 10.4917 7.01027 10.4917C7.18607 10.4917 7.35095 10.4234 7.47466 10.2997L11.8083 5.96606C11.9323 5.84196 12.0005 5.67631 12 5.50021C12.0004 5.32353 11.9323 5.15778 11.8082 5.03387Z" fill="#16468F"/>
</svg>
