<svg width="5" height="19" viewBox="0 0 5 19" fill="none" xmlns="http://www.w3.org/2000/svg">
<path d="M2.07898 4.11858C3.22717 4.11858 4.15796 3.31341 4.15796 2.32018C4.15796 1.32696 3.22717 0.52179 2.07898 0.52179C0.930791 0.52179 0 1.32696 0 2.32018C0 3.31341 0.930791 4.11858 2.07898 4.11858Z" fill="#170072"/>
<path d="M2.07898 11.3122C3.22717 11.3122 4.15796 10.507 4.15796 9.51378C4.15796 8.52056 3.22717 7.71539 2.07898 7.71539C0.930791 7.71539 0 8.52056 0 9.51378C0 10.507 0.930791 11.3122 2.07898 11.3122Z" fill="#170072"/>
<path d="M2.07898 18.5058C3.22717 18.5058 4.15796 17.7006 4.15796 16.7074C4.15796 15.7141 3.22717 14.909 2.07898 14.909C0.930791 14.909 0 15.7141 0 16.7074C0 17.7006 0.930791 18.5058 2.07898 18.5058Z" fill="#170072"/>
</svg>
