<svg width="5" height="20" viewBox="0 0 5 20" fill="none" xmlns="http://www.w3.org/2000/svg">
<path d="M2.07898 4.22501C3.22717 4.22501 4.15796 3.36317 4.15796 2.30002C4.15796 1.23688 3.22717 0.375031 2.07898 0.375031C0.930791 0.375031 0 1.23688 0 2.30002C0 3.36317 0.930791 4.22501 2.07898 4.22501Z" fill="#C2D0E2"/>
<path d="M2.07898 11.925C3.22717 11.925 4.15796 11.0631 4.15796 10C4.15796 8.93686 3.22717 8.07501 2.07898 8.07501C0.930791 8.07501 0 8.93686 0 10C0 11.0631 0.930791 11.925 2.07898 11.925Z" fill="#C2D0E2"/>
<path d="M2.07898 19.625C3.22717 19.625 4.15796 18.7631 4.15796 17.7C4.15796 16.6368 3.22717 15.775 2.07898 15.775C0.930791 15.775 0 16.6368 0 17.7C0 18.7631 0.930791 19.625 2.07898 19.625Z" fill="#C2D0E2"/>
</svg>
