<svg width="9" height="9" viewBox="0 0 9 9" fill="none" xmlns="http://www.w3.org/2000/svg">
<path d="M8.08913 0.91694C7.85249 0.680308 7.47024 0.680308 7.23361 0.91694L4.2666 3.87788L1.29959 0.910873C1.06296 0.67424 0.680708 0.67424 0.444076 0.910873C0.207443 1.14751 0.207443 1.52976 0.444076 1.76639L3.41108 4.7334L0.444076 7.70041C0.207443 7.93704 0.207443 8.31929 0.444076 8.55592C0.680708 8.79256 1.06296 8.79256 1.29959 8.55592L4.2666 5.58892L7.23361 8.55592C7.47024 8.79256 7.85249 8.79256 8.08913 8.55592C8.32576 8.31929 8.32576 7.93704 8.08913 7.70041L5.12212 4.7334L8.08913 1.76639C8.31969 1.53583 8.31969 1.14751 8.08913 0.91694Z" fill="#F01421"/>
</svg>
