<svg width="188" height="35" viewBox="0 0 188 35" fill="none" xmlns="http://www.w3.org/2000/svg">
<path d="M75.3919 7.68739C75.3919 11.1248 73.0264 13.6248 69.2292 13.6248H64.5605V1.8125H69.2292C73.0264 1.8125 75.3919 4.24994 75.3919 7.68739ZM69.0425 10.6873C70.91 10.6873 72.0927 9.62487 72.0927 7.68739C72.0927 5.74992 70.91 4.62496 69.0425 4.62496H67.922V10.6873H69.0425Z" fill="#C15075"/>
<path d="M76.6367 1.68748C76.6367 0.749997 77.3837 0 78.5664 0C79.6869 0 80.4961 0.749997 80.4961 1.68748C80.4961 2.62497 79.7492 3.37497 78.5664 3.37497C77.3837 3.31247 76.6367 2.62497 76.6367 1.68748ZM76.8857 4.18745H80.1849V13.5623H76.8857V4.18745Z" fill="#C15075"/>
<path d="M85.476 4.0625C86.7832 4.0625 87.717 4.62498 88.215 5.49997V4.18751H91.5142V13.4999C91.5142 15.9998 90.1447 18.2498 86.7833 18.2498C83.8576 18.2498 82.0524 16.7498 81.8034 14.4373H85.0403C85.1648 15.0623 85.725 15.3748 86.5965 15.3748C87.5302 15.3748 88.2772 14.9373 88.2772 13.4999V12.3124C87.7792 13.1249 86.8455 13.7499 85.5383 13.7499C83.2973 13.7499 81.5544 11.9374 81.5544 8.93742C81.4921 5.87497 83.235 4.0625 85.476 4.0625ZM86.5343 6.93744C85.6005 6.93744 84.8535 7.62496 84.8535 8.87494C84.8535 10.1249 85.6005 10.8124 86.5343 10.8124C87.468 10.8124 88.215 10.1249 88.215 8.87494C88.215 7.62496 87.468 6.93744 86.5343 6.93744Z" fill="#C15075"/>
<path d="M93.0703 1.68748C93.0703 0.749997 93.8173 0 95 0C96.1827 0 96.9297 0.749997 96.9297 1.68748C96.9297 2.62497 96.1827 3.37497 95 3.37497C93.8795 3.31247 93.0703 2.62497 93.0703 1.68748ZM93.3816 4.18745H96.6807V13.5623H93.3816V4.18745Z" fill="#C15075"/>
<path d="M99.046 6.93743H97.8633V4.18749H99.046V1.9375H102.345V4.18749H104.026V6.93743H102.345V10.0624C102.345 10.5624 102.532 10.8124 103.092 10.8124H104.026V13.6248H102.594C100.54 13.6248 98.9838 12.7498 98.9838 10.0624V6.93743H99.046Z" fill="#C15075"/>
<path d="M109.006 4.0625C110.314 4.0625 111.247 4.62498 111.745 5.49997V4.18751H115.045V13.5624H111.745V12.2499C111.247 13.0624 110.314 13.6874 109.006 13.6874C106.765 13.6874 105.022 11.8749 105.022 8.87494C105.022 5.87498 106.765 4.0625 109.006 4.0625ZM110.065 6.93744C109.131 6.93744 108.384 7.62496 108.384 8.87494C108.384 10.1249 109.131 10.8124 110.065 10.8124C110.998 10.8124 111.745 10.1249 111.745 8.87494C111.745 7.62496 110.936 6.93744 110.065 6.93744Z" fill="#C15075"/>
<path d="M120.149 1.1875H116.85V13.5623H120.149V1.1875Z" fill="#C15075"/>
<path d="M129.611 13.7498C126.996 13.7498 124.942 12.4999 124.817 9.9374H128.303C128.366 10.8124 128.864 11.1249 129.486 11.1249C130.046 11.1249 130.544 10.8124 130.544 10.2499C130.544 8.37492 124.817 9.2499 124.88 5.12496C124.88 2.81249 126.809 1.5625 129.299 1.5625C131.976 1.5625 133.781 2.875 133.906 5.24996H130.358C130.295 4.49997 129.86 4.18747 129.299 4.18747C128.801 4.18747 128.428 4.43746 128.428 4.99995C128.428 6.74993 134.092 6.18743 134.092 9.99988C134.03 12.1249 132.412 13.7498 129.611 13.7498Z" fill="#C15075"/>
<path d="M135.524 1.1875H138.824V7.87487L141.376 4.18745H145.298L141.625 8.93737L145.36 13.6248H141.376L138.824 9.74985V13.6248H135.524V1.1875Z" fill="#C15075"/>
<path d="M146.044 1.68748C146.044 0.749997 146.791 0 147.974 0C149.156 0 149.903 0.749997 149.903 1.68748C149.903 2.62497 149.156 3.37497 147.974 3.37497C146.853 3.31247 146.044 2.62497 146.044 1.68748ZM146.355 4.18745H149.654V13.5623H146.355V4.18745Z" fill="#C15075"/>
<path d="M154.759 1.1875H151.46V13.5623H154.759V1.1875Z" fill="#C15075"/>
<path d="M159.925 1.1875H156.626V13.5623H159.925V1.1875Z" fill="#C15075"/>
<path d="M165.715 13.7499C163.101 13.7499 161.358 12.3124 161.233 10.4374H164.408C164.47 11.0624 165.031 11.3749 165.715 11.3749C166.276 11.3749 166.587 11.1249 166.587 10.7499C166.587 9.37493 161.607 10.4999 161.607 7.06245C161.607 5.43747 162.976 4.0625 165.466 4.0625C168.018 4.0625 169.326 5.49997 169.575 7.37495H166.649C166.525 6.81245 166.151 6.43746 165.404 6.43746C164.844 6.43746 164.595 6.62497 164.595 6.99997C164.595 8.31245 169.575 7.24995 169.575 10.8124C169.637 12.4999 168.143 13.7499 165.715 13.7499Z" fill="#C15075"/>
<path d="M181.464 4.56246C181.526 3.68747 181.028 3.24999 180.281 3.24999C179.534 3.24999 179.036 3.74998 179.036 4.37497C179.036 4.99996 179.41 5.56245 180.219 6.43743L183.269 9.49991L184.452 7.56241H186.506L185.012 10.1249C184.888 10.3749 184.701 10.6249 184.577 10.8124L187.378 13.6248H184.888L183.456 12.1874C182.336 13.3123 181.028 13.8748 179.41 13.8748C176.92 13.8748 175.239 12.4999 175.239 10.3124C175.239 8.74991 176.111 7.43743 177.978 6.68745C177.356 5.87496 177.107 5.24994 177.107 4.43745C177.107 2.93748 178.352 1.75 180.344 1.75C182.336 1.75 183.456 3.00001 183.332 4.62498H181.464V4.56246ZM182.273 10.9374L179.223 7.81242C177.854 8.37491 177.231 9.1249 177.231 10.1874C177.231 11.3124 178.103 12.1874 179.472 12.1874C180.593 12.1874 181.464 11.7499 182.273 10.9374Z" fill="#170072"/>
<path d="M69.1667 23H72.4659V30.8124C72.4659 33.4998 70.9097 34.9373 68.4197 34.9373C65.8053 34.9373 64 33.4374 64 30.5624H67.237C67.237 31.5624 67.6727 31.9374 68.233 31.9374C68.7932 31.9374 69.1045 31.6249 69.1045 30.8124V23H69.1667Z" fill="#C15075"/>
<path d="M79.3757 34.9374C76.5745 34.9374 74.458 33.1249 74.458 30.1249C74.458 27.125 76.5745 25.3125 79.3757 25.3125C82.1769 25.3125 84.2934 27.125 84.2934 30.1249C84.2934 33.1249 82.1769 34.9374 79.3757 34.9374ZM79.3757 32.0624C80.1849 32.0624 80.9941 31.4374 80.9941 30.0624C80.9941 28.7499 80.2472 28.125 79.4379 28.125C78.6287 28.125 77.8817 28.7499 77.8817 30.0624C77.8195 31.4999 78.5042 32.0624 79.3757 32.0624Z" fill="#C15075"/>
<path d="M92.3233 25.3124C94.5642 25.3124 96.3072 27.1249 96.3072 30.1249C96.3072 33.1248 94.5642 34.9373 92.3233 34.9373C91.016 34.9373 90.0824 34.3748 89.5844 33.4998V34.8123H86.2852V22.4375H89.5844V26.7499C90.0824 25.8749 91.016 25.3124 92.3233 25.3124ZM91.2651 28.1874C90.3313 28.1874 89.5844 28.8749 89.5844 30.1249C89.5844 31.3749 90.3936 32.0623 91.2651 32.0623C92.1988 32.0623 92.9458 31.3749 92.9458 30.1249C93.008 28.8124 92.1988 28.1874 91.2651 28.1874Z" fill="#C15075"/>
<path d="M102.283 34.9374C99.6682 34.9374 97.9253 33.4998 97.8008 31.6249H100.975C101.038 32.2499 101.598 32.5624 102.283 32.5624C102.843 32.5624 103.154 32.3124 103.154 31.9374C103.154 30.5624 98.1743 31.6874 98.1743 28.2499C98.1743 26.625 99.5438 25.25 102.034 25.25C104.586 25.25 105.893 26.6875 106.142 28.5624H103.216C103.092 28 102.718 27.625 101.971 27.625C101.411 27.625 101.162 27.8124 101.162 28.1874C101.162 29.4999 106.142 28.4374 106.142 31.9999C106.204 33.6874 104.71 34.9374 102.283 34.9374Z" fill="#C15075"/>
<path d="M117.908 30.1249H115.791V34.8748H113.861V23.25H117.845C120.584 23.25 121.954 24.8125 121.954 26.6874C122.016 28.3124 120.958 30.1249 117.908 30.1249ZM117.908 28.5624C119.401 28.5624 120.086 27.8124 120.086 26.6874C120.086 25.5 119.401 24.75 117.908 24.75H115.791V28.5624H117.908Z" fill="#170072"/>
<path d="M126.436 22.4375H124.506V34.8123H126.436V22.4375Z" fill="#170072"/>
<path d="M133.283 25.4375C134.839 25.4375 135.898 26.1875 136.458 26.9375V25.625H138.388V34.8749H136.458V33.4374C135.898 34.2499 134.777 34.9374 133.221 34.9374C130.856 34.9374 128.926 32.9999 128.926 30.1249C128.926 27.3125 130.855 25.4375 133.283 25.4375ZM133.657 27.125C132.225 27.125 130.855 28.1874 130.855 30.1874C130.855 32.1874 132.225 33.3124 133.657 33.3124C135.088 33.3124 136.458 32.1874 136.458 30.1874C136.458 28.2499 135.088 27.125 133.657 27.125Z" fill="#170072"/>
<path d="M141.874 27.125H140.815V25.5625H141.874V23.25H143.803V25.5625H146.044V27.125H143.803V32.2499C143.803 32.9373 144.052 33.2499 144.862 33.2499H146.044V34.8123H144.55C142.932 34.8123 141.874 34.1248 141.874 32.2499V27.125Z" fill="#170072"/>
<path d="M148.659 27.1249H147.601V25.5625H148.659V24.9375C148.659 22.8125 149.717 21.875 152.145 21.875V23.4375C150.962 23.4375 150.589 23.8125 150.589 24.875V25.4999H152.269V27.0624H150.589V34.7498H148.659V27.1249Z" fill="#170072"/>
<path d="M158.619 34.9999C156.005 34.9999 154.013 33.1249 154.013 30.25C154.013 27.375 156.067 25.5 158.681 25.5C161.296 25.5 163.35 27.375 163.35 30.25C163.412 33.1249 161.234 34.9999 158.619 34.9999ZM158.619 33.3124C160.051 33.3124 161.42 32.3124 161.42 30.1874C161.42 28.0625 160.051 27.0625 158.681 27.0625C157.25 27.0625 155.942 28.0625 155.942 30.1874C155.942 32.3124 157.187 33.3124 158.619 33.3124Z" fill="#170072"/>
<path d="M167.831 34.8124H165.901V25.5625H167.831V26.875C168.391 25.9375 169.263 25.375 170.57 25.375V27.375H170.072C168.64 27.375 167.831 27.9375 167.831 29.9375V34.8124Z" fill="#170072"/>
<path d="M186.071 29.6874C186.071 28 185.137 27.125 183.767 27.125C182.336 27.125 181.464 28 181.464 29.6874V34.8749H179.597V29.6874C179.597 28 178.663 27.125 177.293 27.125C175.862 27.125 174.99 28 174.99 29.6874V34.8749H173.061V25.625H174.99V26.6875C175.613 25.9375 176.609 25.5 177.729 25.5C179.161 25.5 180.406 26.125 181.028 27.3125C181.589 26.1875 182.896 25.5 184.203 25.5C186.382 25.5 188 26.875 188 29.4374V34.8749H186.133V29.6874H186.071Z" fill="#170072"/>
<path d="M52.2708 0H0V34.9375H52.2708V0Z" fill="#034DA1"/>
<path d="M26.7219 4.96571H28.5275L27.083 6.13932L27.6247 7.94488L26.1802 6.86155L24.7358 7.94488L25.2775 6.13932L23.833 4.96571H25.6386L26.1802 3.16016L26.7219 4.96571Z" fill="#FFF100"/>
<path d="M26.7219 28.2563H28.5275L27.083 29.3396L27.6247 31.0549L26.1802 29.9716L24.7358 31.0549L25.2775 29.3396L23.833 28.2563H25.6386L26.1802 26.541L26.7219 28.2563Z" fill="#FFF100"/>
<path d="M32.5002 26.7231H34.3058L32.8613 27.8064L33.403 29.5217L31.9586 28.4384L30.5141 29.5217L31.0558 27.8064L29.6113 26.7231H31.4169L31.9586 25.0078L32.5002 26.7231Z" fill="#FFF100"/>
<path d="M32.4998 6.50043H34.3053L32.8609 7.58377L33.4026 9.29905L31.9581 8.21571L30.5137 9.38932L31.1456 7.58377L29.7012 6.50043H31.5067L32.0484 4.78516L32.4998 6.50043Z" fill="#FFF100"/>
<path d="M36.8332 10.8325H38.6388L37.1943 11.9158L37.736 13.6311L36.2916 12.5477L34.8471 13.6311L35.3888 11.9158L33.9443 10.8325H35.7499L36.2916 9.11719L36.8332 10.8325Z" fill="#FFF100"/>
<path d="M36.8332 22.5688H38.6388L37.1943 23.6521L37.736 25.3674L36.2916 24.2841L34.8471 25.3674L35.3888 23.6521L33.9443 22.5688H35.7499L36.2916 20.8535L36.8332 22.5688Z" fill="#FFF100"/>
<path d="M38.4587 16.6118H40.2642L38.8198 17.6951L39.3614 19.4104L37.917 18.327L36.4725 19.4104L37.0142 17.6951L35.4795 16.6118H37.285L37.8267 14.8965L38.4587 16.6118Z" fill="#FFF100"/>
<path d="M20.7639 6.5H22.5694L21.125 7.58333L21.6667 9.29861L20.3125 8.30556L18.7778 9.38889L19.3194 7.67361L17.875 6.59028H19.6806L20.3125 4.875L20.7639 6.5Z" fill="#FFF100"/>
<path d="M16.6115 10.8325H18.4171L16.9727 11.9158L17.5143 13.6311L16.0699 12.5477L14.6254 13.6311L15.1671 11.9158L13.7227 10.8325H15.5282L16.0699 9.11719L16.6115 10.8325Z" fill="#FFF100"/>
<path d="M15.0764 16.6118H16.8819L15.4375 17.6951L15.9792 19.4104L14.5347 18.327L13.0903 19.4104L13.6319 17.6951L12.1875 16.6118H13.9931L14.5347 14.8965L15.0764 16.6118Z" fill="#FFF100"/>
<path d="M16.6115 22.5688H18.4171L16.9727 23.6521L17.5143 25.3674L16.0699 24.2841L14.6254 25.3674L15.1671 23.6521L13.7227 22.5688H15.5282L16.0699 20.8535L16.6115 22.5688Z" fill="#FFF100"/>
<path d="M20.8537 26.8129H22.6593L21.2148 27.8963L21.7565 29.6115L20.3121 28.5282L18.8676 29.6115L19.4093 27.8963L17.9648 26.8129H19.7704L20.3121 25.0977L20.8537 26.8129Z" fill="#FFF100"/>
</svg>
