<svg width="32" height="32" viewBox="0 0 32 32" fill="none" xmlns="http://www.w3.org/2000/svg">
<circle cx="16" cy="16" r="16" fill="#F8AE21"/>
<path d="M24.0042 9.90663L23.9904 9.89325L23.9858 9.89771C23.6865 9.7603 23.3552 9.67822 23.0026 9.67822H8.99737C8.6783 9.67822 8.37503 9.74145 8.09777 9.85475L8.07343 9.83184L8.00126 9.9044C7.21335 10.2702 6.66319 11.047 6.66319 11.9525V21.0501C6.66319 22.3042 7.71026 23.3244 8.99737 23.3244H23.0026C24.2897 23.3244 25.3368 22.3042 25.3368 21.0501V11.9528C25.337 11.0491 24.7891 10.2737 24.0042 9.90663ZM22.6205 11.1946L16.6566 16.8583C16.3358 17.1645 15.7911 17.1637 15.4691 16.8575L9.50801 11.1946H22.6205ZM23.0028 21.8082H8.99737C8.56806 21.8082 8.21924 21.4682 8.21924 21.0501V12.0881L14.3814 17.9426C14.8457 18.3838 15.4543 18.6045 16.0629 18.6045C16.6715 18.6045 17.2801 18.3838 17.7438 17.9438L23.7808 12.2109V21.0505C23.7808 21.4682 23.4322 21.8082 23.0028 21.8082Z" fill="white"/>
</svg>
