<svg width="69" height="52" viewBox="0 0 69 52" fill="none" xmlns="http://www.w3.org/2000/svg">
<path d="M38.0327 14.1795H6.13122C3.01811 14.1901 0.497282 16.7162 0.500002 19.832V37.6555C0.500002 39.1456 1.095 40.5747 2.1522 41.6293C3.20674 42.6812 4.64113 43.2709 6.13129 43.2655H10.5938V49.5927C10.5938 52.148 11.9326 52.6234 13.5688 50.6552L19.718 43.2656H38.0331C39.5233 43.2709 40.9577 42.6812 42.0122 41.6294C43.0694 40.5749 43.6644 39.1458 43.6644 37.6556V19.8321C43.6671 16.7164 41.1463 14.1902 38.0332 14.1796L38.0327 14.1795ZM11.0796 31.7269C9.92147 31.7269 8.87753 31.0283 8.43397 29.9605C7.99038 28.89 8.23475 27.6575 9.05553 26.8394C9.87364 26.0186 11.1061 25.7743 12.1766 26.2178C13.2444 26.6614 13.943 27.7053 13.943 28.8635C13.943 29.6231 13.6402 30.351 13.1036 30.8875C12.5671 31.4241 11.8392 31.7269 11.0796 31.7269L11.0796 31.7269ZM22.082 31.7269C20.9239 31.7269 19.8799 31.0283 19.4364 29.9605C18.9928 28.89 19.2372 27.6575 20.0579 26.8394C20.876 26.0186 22.1085 25.7743 23.179 26.2178C24.2468 26.6614 24.9454 27.7053 24.9454 28.8635C24.9454 29.6231 24.6426 30.351 24.106 30.8875C23.5695 31.4241 22.8416 31.7269 22.082 31.7269L22.082 31.7269ZM33.0844 31.7269C31.9263 31.7269 30.8823 31.0283 30.4388 29.9605C29.9952 28.89 30.2395 27.6575 31.0603 26.8394C31.8784 26.0186 33.1109 25.7743 34.1814 26.2178C35.2492 26.6614 35.9478 27.7053 35.9478 28.8635C35.9478 30.4439 34.6649 31.7269 33.0844 31.7269L33.0844 31.7269Z" fill="#7FA1C9"/>
<path d="M59.7878 0.101477H29.1878C24.3985 0.101477 20.4219 3.99026 20.4219 8.77964V9.92979H38.038C43.4833 9.92979 47.9116 14.2754 47.9116 19.7259L47.9142 33.9685H53.07L58.2497 40.1469C59.8913 42.1072 61.23 41.6211 61.2194 39.0631L61.1955 33.8675C65.3233 33.1663 68.5 29.4554 68.5 25.1444V8.78229C68.5 3.9904 64.5768 0.10141 59.7879 0.10141L59.7878 0.101477Z" fill="#C2D0E2"/>
</svg>
