<svg width="152" height="129" viewBox="0 0 152 129" fill="none" xmlns="http://www.w3.org/2000/svg">
<path fill-rule="evenodd" clip-rule="evenodd" d="M8 4.01768C8 6.23659 6.20914 8.03537 4 8.03537C1.79086 8.03537 0 6.23659 0 4.01768C0 1.79878 1.79086 0 4 0C6.20914 0 8 1.79878 8 4.01768ZM8 28.1237C8 30.3426 6.20914 32.1414 4 32.1414C1.79086 32.1414 0 30.3426 0 28.1237C0 25.9048 1.79086 24.106 4 24.106C6.20914 24.106 8 25.9048 8 28.1237ZM28 8.03537C30.2091 8.03537 32 6.23659 32 4.01768C32 1.79878 30.2091 0 28 0C25.7909 0 24 1.79878 24 4.01768C24 6.23659 25.7909 8.03537 28 8.03537ZM32 28.1237C32 30.3426 30.2091 32.1414 28 32.1414C25.7909 32.1414 24 30.3426 24 28.1237C24 25.9048 25.7909 24.106 28 24.106C30.2091 24.106 32 25.9048 32 28.1237ZM52 8.03537C54.2091 8.03537 56 6.23659 56 4.01768C56 1.79878 54.2091 0 52 0C49.7909 0 48 1.79878 48 4.01768C48 6.23659 49.7909 8.03537 52 8.03537ZM56 28.1237C56 30.3426 54.2091 32.1414 52 32.1414C49.7909 32.1414 48 30.3426 48 28.1237C48 25.9048 49.7909 24.106 52 24.106C54.2091 24.106 56 25.9048 56 28.1237ZM76 8.03537C78.2091 8.03537 80 6.23659 80 4.01768C80 1.79878 78.2091 0 76 0C73.7909 0 72 1.79878 72 4.01768C72 6.23659 73.7909 8.03537 76 8.03537ZM80 28.1237C80 30.3426 78.2091 32.1414 76 32.1414C73.7909 32.1414 72 30.3426 72 28.1237C72 25.9048 73.7909 24.106 76 24.106C78.2091 24.106 80 25.9048 80 28.1237ZM100 8.03537C102.209 8.03537 104 6.23659 104 4.01768C104 1.79878 102.209 0 100 0C97.7909 0 96 1.79878 96 4.01768C96 6.23659 97.7909 8.03537 100 8.03537ZM104 28.1237C104 30.3426 102.209 32.1414 100 32.1414C97.7909 32.1414 96 30.3426 96 28.1237C96 25.9048 97.7909 24.106 100 24.106C102.209 24.106 104 25.9048 104 28.1237ZM124 8.03537C126.209 8.03537 128 6.23659 128 4.01768C128 1.79878 126.209 0 124 0C121.791 0 120 1.79878 120 4.01768C120 6.23659 121.791 8.03537 124 8.03537ZM128 28.1237C128 30.3426 126.209 32.1414 124 32.1414C121.791 32.1414 120 30.3426 120 28.1237C120 25.9048 121.791 24.106 124 24.106C126.209 24.106 128 25.9048 128 28.1237ZM148 8.03537C150.209 8.03537 152 6.23659 152 4.01768C152 1.79878 150.209 0 148 0C145.791 0 144 1.79878 144 4.01768C144 6.23659 145.791 8.03537 148 8.03537ZM152 28.1237C152 30.3426 150.209 32.1414 148 32.1414C145.791 32.1414 144 30.3426 144 28.1237C144 25.9048 145.791 24.106 148 24.106C150.209 24.106 152 25.9048 152 28.1237ZM4 56.2475C6.20914 56.2475 8 54.4487 8 52.2298C8 50.0109 6.20914 48.2121 4 48.2121C1.79086 48.2121 0 50.0109 0 52.2298C0 54.4487 1.79086 56.2475 4 56.2475ZM32 52.2298C32 54.4487 30.2091 56.2475 28 56.2475C25.7909 56.2475 24 54.4487 24 52.2298C24 50.0109 25.7909 48.2121 28 48.2121C30.2091 48.2121 32 50.0109 32 52.2298ZM52 56.2475C54.2091 56.2475 56 54.4487 56 52.2298C56 50.0109 54.2091 48.2121 52 48.2121C49.7909 48.2121 48 50.0109 48 52.2298C48 54.4487 49.7909 56.2475 52 56.2475ZM80 52.2298C80 54.4487 78.2091 56.2475 76 56.2475C73.7909 56.2475 72 54.4487 72 52.2298C72 50.0109 73.7909 48.2121 76 48.2121C78.2091 48.2121 80 50.0109 80 52.2298ZM100 56.2475C102.209 56.2475 104 54.4487 104 52.2298C104 50.0109 102.209 48.2121 100 48.2121C97.7909 48.2121 96 50.0109 96 52.2298C96 54.4487 97.7909 56.2475 100 56.2475ZM128 52.2298C128 54.4487 126.209 56.2475 124 56.2475C121.791 56.2475 120 54.4487 120 52.2298C120 50.0109 121.791 48.2121 124 48.2121C126.209 48.2121 128 50.0109 128 52.2298ZM148 56.2475C150.209 56.2475 152 54.4487 152 52.2298C152 50.0109 150.209 48.2121 148 48.2121C145.791 48.2121 144 50.0109 144 52.2298C144 54.4487 145.791 56.2475 148 56.2475ZM8 76.3358C8 78.5547 6.20914 80.3535 4 80.3535C1.79086 80.3535 0 78.5547 0 76.3358C0 74.117 1.79086 72.3182 4 72.3182C6.20914 72.3182 8 74.117 8 76.3358ZM28 80.3535C30.2091 80.3535 32 78.5547 32 76.3358C32 74.117 30.2091 72.3182 28 72.3182C25.7909 72.3182 24 74.117 24 76.3358C24 78.5547 25.7909 80.3535 28 80.3535ZM56 76.3358C56 78.5547 54.2091 80.3535 52 80.3535C49.7909 80.3535 48 78.5547 48 76.3358C48 74.117 49.7909 72.3182 52 72.3182C54.2091 72.3182 56 74.117 56 76.3358ZM76 80.3535C78.2091 80.3535 80 78.5547 80 76.3358C80 74.117 78.2091 72.3182 76 72.3182C73.7909 72.3182 72 74.117 72 76.3358C72 78.5547 73.7909 80.3535 76 80.3535ZM104 76.3358C104 78.5547 102.209 80.3535 100 80.3535C97.7909 80.3535 96 78.5547 96 76.3358C96 74.117 97.7909 72.3182 100 72.3182C102.209 72.3182 104 74.117 104 76.3358ZM124 80.3535C126.209 80.3535 128 78.5547 128 76.3358C128 74.117 126.209 72.3182 124 72.3182C121.791 72.3182 120 74.117 120 76.3358C120 78.5547 121.791 80.3535 124 80.3535ZM152 76.3358C152 78.5547 150.209 80.3535 148 80.3535C145.791 80.3535 144 78.5547 144 76.3358C144 74.117 145.791 72.3182 148 72.3182C150.209 72.3182 152 74.117 152 76.3358ZM4 104.46C6.20914 104.46 8 102.661 8 100.442C8 98.223 6.20914 96.4243 4 96.4243C1.79086 96.4243 0 98.223 0 100.442C0 102.661 1.79086 104.46 4 104.46ZM32 100.442C32 102.661 30.2091 104.46 28 104.46C25.7909 104.46 24 102.661 24 100.442C24 98.223 25.7909 96.4243 28 96.4243C30.2091 96.4243 32 98.223 32 100.442ZM52 104.46C54.2091 104.46 56 102.661 56 100.442C56 98.223 54.2091 96.4243 52 96.4243C49.7909 96.4243 48 98.223 48 100.442C48 102.661 49.7909 104.46 52 104.46ZM80 100.442C80 102.661 78.2091 104.46 76 104.46C73.7909 104.46 72 102.661 72 100.442C72 98.223 73.7909 96.4243 76 96.4243C78.2091 96.4243 80 98.223 80 100.442ZM100 104.46C102.209 104.46 104 102.661 104 100.442C104 98.223 102.209 96.4243 100 96.4243C97.7909 96.4243 96 98.223 96 100.442C96 102.661 97.7909 104.46 100 104.46ZM128 100.442C128 102.661 126.209 104.46 124 104.46C121.791 104.46 120 102.661 120 100.442C120 98.223 121.791 96.4243 124 96.4243C126.209 96.4243 128 98.223 128 100.442ZM148 104.46C150.209 104.46 152 102.661 152 100.442C152 98.223 150.209 96.4243 148 96.4243C145.791 96.4243 144 98.223 144 100.442C144 102.661 145.791 104.46 148 104.46ZM8 124.548C8 126.767 6.20914 128.566 4 128.566C1.79086 128.566 0 126.767 0 124.548C0 122.329 1.79086 120.53 4 120.53C6.20914 120.53 8 122.329 8 124.548ZM28 128.566C30.2091 128.566 32 126.767 32 124.548C32 122.329 30.2091 120.53 28 120.53C25.7909 120.53 24 122.329 24 124.548C24 126.767 25.7909 128.566 28 128.566ZM56 124.548C56 126.767 54.2091 128.566 52 128.566C49.7909 128.566 48 126.767 48 124.548C48 122.329 49.7909 120.53 52 120.53C54.2091 120.53 56 122.329 56 124.548ZM76 128.566C78.2091 128.566 80 126.767 80 124.548C80 122.329 78.2091 120.53 76 120.53C73.7909 120.53 72 122.329 72 124.548C72 126.767 73.7909 128.566 76 128.566ZM104 124.548C104 126.767 102.209 128.566 100 128.566C97.7909 128.566 96 126.767 96 124.548C96 122.329 97.7909 120.53 100 120.53C102.209 120.53 104 122.329 104 124.548ZM124 128.566C126.209 128.566 128 126.767 128 124.548C128 122.329 126.209 120.53 124 120.53C121.791 120.53 120 122.329 120 124.548C120 126.767 121.791 128.566 124 128.566ZM152 124.548C152 126.767 150.209 128.566 148 128.566C145.791 128.566 144 126.767 144 124.548C144 122.329 145.791 120.53 148 120.53C150.209 120.53 152 122.329 152 124.548Z" fill="#D8D8D8"/>
</svg>
