<svg width="60" height="60" viewBox="0 0 60 60" fill="none" xmlns="http://www.w3.org/2000/svg">
<rect x="0.5" y="0.5" width="59" height="59" rx="5.5" fill="#A299C7" fill-opacity="0.6" stroke="url(#paint0_linear)"/>
<g filter="url(#filter0_b)">
<ellipse cx="29.8" cy="29.8333" rx="19.8" ry="19.8333" fill="url(#paint1_linear)"/>
<path d="M49.1 29.8333C49.1 40.5116 40.4583 49.1667 29.8 49.1667C19.1417 49.1667 10.5 40.5116 10.5 29.8333C10.5 19.155 19.1417 10.5 29.8 10.5C40.4583 10.5 49.1 19.155 49.1 29.8333Z" stroke="url(#paint2_linear)"/>
</g>
<path d="M37.063 31.444V24.7838C37.0615 23.4998 36.0232 22.4598 34.7413 22.4582H34.1848V23.2748H34.7413C35.5725 23.2756 36.2469 23.9511 36.2477 24.7838V26.0175H20.9609V24.7838C20.9617 23.9511 21.6361 23.2756 22.4673 23.2748H23.9259V23.9591H23.5493C23.324 23.9591 23.1416 24.1418 23.1416 24.3675C23.1416 24.5924 23.324 24.7758 23.5493 24.7758H25.1186H25.1178C25.3431 24.7758 25.5254 24.5924 25.5254 24.3675C25.5254 24.1418 25.3431 23.9591 25.1178 23.9591H24.7412V21.5538C24.7412 21.3281 24.5588 21.1455 24.3335 21.1455C24.1082 21.1455 23.9259 21.3281 23.9259 21.5538V22.4582H22.4673C21.1854 22.4598 20.1471 23.4998 20.1455 24.7839V35.7658C20.1471 37.0498 21.1853 38.0899 22.4673 38.0915H30.4268C31.3018 38.9959 32.5025 39.5111 33.7597 39.5207C35.0177 39.5302 36.2264 39.0342 37.1148 38.1433C38.0042 37.2533 38.4994 36.0427 38.4898 34.7825C38.4803 33.5232 37.966 32.3205 37.0631 31.444L37.063 31.444ZM22.4674 37.2748C21.6362 37.274 20.9619 36.5985 20.9611 35.7658V26.8344H36.2478V30.8068C35.04 30.0643 33.5614 29.9072 32.2256 30.381C30.8896 30.8539 29.8378 31.9074 29.3657 33.2456C28.8928 34.5839 29.0496 36.065 29.7909 37.2747L22.4674 37.2748ZM33.7931 38.7039C32.7636 38.7039 31.7764 38.294 31.0486 37.5651C30.3209 36.8361 29.9117 35.8472 29.9117 34.816C29.9117 33.7847 30.3209 32.7958 31.0486 32.0669C31.7763 31.3379 32.7636 30.928 33.7931 30.928C34.8226 30.928 35.8098 31.3379 36.5376 32.0669C37.2653 32.7958 37.6745 33.7847 37.6745 34.816C37.6737 35.8472 37.2637 36.8353 36.5368 37.5642C35.8091 38.2924 34.8226 38.7031 33.7931 38.7039L33.7931 38.7039ZM35.9595 33.0575L36.536 33.6349L33.4165 36.7597L31.8663 35.2069L32.4427 34.6295L33.4164 35.6048L35.9595 33.0575ZM32.4674 23.9594V23.2751H25.644V22.4585H32.4674V21.5541C32.4674 21.3284 32.6498 21.1457 32.8751 21.1457C33.1004 21.1457 33.2827 21.3284 33.2827 21.5541V23.9594H33.6593C33.8847 23.9594 34.067 24.142 34.067 24.3677C34.067 24.5926 33.8847 24.776 33.6593 24.776H32.0909C31.8655 24.776 31.6832 24.5926 31.6832 24.3677C31.6832 24.142 31.8655 23.9594 32.0909 23.9594L32.4674 23.9594Z" fill="#7466AA"/>
<defs>
<filter id="filter0_b" x="-2" y="-2" width="63.6" height="63.6667" filterUnits="userSpaceOnUse" color-interpolation-filters="sRGB">
<feFlood flood-opacity="0" result="BackgroundImageFix"/>
<feGaussianBlur in="BackgroundImage" stdDeviation="6"/>
<feComposite in2="SourceAlpha" operator="in" result="effect1_backgroundBlur"/>
<feBlend mode="normal" in="SourceGraphic" in2="effect1_backgroundBlur" result="shape"/>
</filter>
<linearGradient id="paint0_linear" x1="30" y1="0" x2="30" y2="60" gradientUnits="userSpaceOnUse">
<stop stop-color="white"/>
<stop offset="1" stop-color="white" stop-opacity="0"/>
</linearGradient>
<linearGradient id="paint1_linear" x1="10" y1="10" x2="19.0741" y2="54.6595" gradientUnits="userSpaceOnUse">
<stop stop-color="white" stop-opacity="0.3"/>
<stop offset="1" stop-color="white"/>
</linearGradient>
<linearGradient id="paint2_linear" x1="11.056" y1="10.4641" x2="19.736" y2="54.9479" gradientUnits="userSpaceOnUse">
<stop stop-color="white"/>
<stop offset="1" stop-color="white" stop-opacity="0"/>
</linearGradient>
</defs>
</svg>
