<svg width="60" height="60" viewBox="0 0 60 60" fill="none" xmlns="http://www.w3.org/2000/svg">
<rect width="60" height="60" rx="6" fill="#A299C7" fill-opacity="0.6"/>
<g filter="url(#filter0_b)">
<circle cx="30" cy="30" r="21" fill="url(#paint0_linear)"/>
<circle cx="30" cy="30" r="20.5" stroke="url(#paint1_linear)"/>
</g>
<g clip-path="url(#clip0)">
<path d="M33.2931 40.7393H36.0772C36.1694 40.7393 36.2582 40.7027 36.3234 40.6375C36.3887 40.5722 36.4252 40.4835 36.4252 40.3913V37.8021C37.1021 37.0356 37.5536 36.0968 37.732 35.0901C37.7877 34.9501 37.8164 34.8004 37.8173 34.649V34.127C37.8129 33.0029 37.4701 31.9067 36.8341 30.9801C36.199 30.0526 35.2985 29.3392 34.2518 28.9303L34.0013 29.5793C34.9174 29.9369 35.7048 30.5625 36.2615 31.3733C36.8174 32.1842 37.1167 33.1438 37.1211 34.1269C37.1194 34.3853 37.0976 34.6428 37.055 34.8978C36.9419 35.1074 36.7 35.2136 36.4694 35.1544C36.238 35.0952 36.0762 34.8873 36.0771 34.6489V34.1269H35.381V34.6489C35.381 35.3215 35.9265 35.867 36.5991 35.867C36.6678 35.8661 36.7357 35.8591 36.8035 35.8461C36.5808 36.4334 36.2476 36.9719 35.8213 37.433C35.7621 37.4974 35.7291 37.5818 35.7291 37.6697V40.0431H33.641V39.2426C33.641 39.1382 33.594 39.039 33.5131 38.9729C33.4322 38.9068 33.326 38.8807 33.2234 38.9016C32.9023 38.966 32.5761 38.999 32.2489 38.999H28.7688C28.4417 38.999 28.1154 38.966 27.7944 38.9016C27.6917 38.8807 27.5856 38.9068 27.5047 38.9729C27.4238 39.039 27.3768 39.1374 27.3768 39.2426V40.0431H25.2887V37.6679C25.2887 37.58 25.2556 37.4956 25.1965 37.4312C24.6692 36.8614 24.2856 36.1741 24.0776 35.4258C24.0359 35.2753 23.8984 35.1709 23.7418 35.1709H22.5046V33.0829H23.7418C23.8984 33.0829 24.0359 32.9784 24.0776 32.8279C24.2864 32.0797 24.6692 31.3915 25.1965 30.8208C25.2556 30.7564 25.2887 30.6729 25.2887 30.585V28.2455C25.7759 28.3464 26.1961 28.65 26.4458 29.0807L27.0479 28.7327C26.612 27.9801 25.8098 27.5164 24.9407 27.5146C24.7484 27.5146 24.5927 27.6704 24.5927 27.8627V30.4519C24.0976 31.0156 23.72 31.6743 23.4843 32.3868H22.1566C21.9643 32.3868 21.8086 32.5425 21.8086 32.7348V35.5189C21.8086 35.6111 21.8451 35.6999 21.9104 35.7651C21.9756 35.8304 22.0644 35.8669 22.1566 35.8669H23.4843C23.72 36.5795 24.0968 37.2372 24.5927 37.801V40.3911C24.5927 40.4833 24.6292 40.5721 24.6945 40.6373C24.7597 40.7026 24.8485 40.7391 24.9407 40.7391H27.7248C27.817 40.7391 27.9058 40.7026 27.971 40.6373C28.0363 40.5721 28.0728 40.4833 28.0728 40.3911V39.6516C28.3034 39.6803 28.5365 39.6951 28.7688 39.6951H32.249C32.4813 39.6951 32.7144 39.6803 32.945 39.6516V40.3911C32.945 40.4833 32.9815 40.5721 33.0468 40.6373C33.112 40.7026 33.2008 40.7391 33.293 40.7391L33.2931 40.7393Z" fill="#7466AA"/>
<path d="M25.2891 33.0841C25.2891 33.506 25.5431 33.8871 25.9337 34.0489C26.3235 34.2099 26.7724 34.1211 27.0717 33.8227C27.3702 33.5234 27.4589 33.0745 27.298 32.6847C27.1361 32.2941 26.7551 32.04 26.3331 32.04C25.7563 32.04 25.2891 32.5073 25.2891 33.0841V33.0841ZM26.6811 33.0841C26.6811 33.225 26.5967 33.352 26.4662 33.406C26.3366 33.4591 26.1869 33.4295 26.0869 33.3303C25.9877 33.2302 25.9581 33.0806 26.0112 32.951C26.0651 32.8205 26.1922 32.7361 26.3331 32.7361C26.4253 32.7361 26.5141 32.7726 26.5793 32.8379C26.6446 32.9031 26.6811 32.9919 26.6811 33.0841L26.6811 33.0841Z" fill="#7466AA"/>
<path d="M27.7242 26.4716H27.0282C26.8359 26.4716 26.6802 26.6273 26.6802 26.8196C26.6819 28.5484 28.0835 29.9501 29.8121 29.9516H30.1602V30.6476H28.7681V31.3437H32.2482V30.6476H30.8562V29.9516H31.2042C32.9329 29.9499 34.3346 28.5483 34.3362 26.8196C34.3362 26.7274 34.2996 26.6387 34.2344 26.5734C34.1691 26.5081 34.0804 26.4716 33.9882 26.4716H33.2921C32.3455 26.4716 31.4494 26.9014 30.8559 27.6392V26.1236H31.204C32.9327 26.1219 34.3344 24.7202 34.3359 22.9916C34.3359 22.8994 34.2994 22.8106 34.2342 22.7454C34.1689 22.6801 34.0802 22.6436 33.9879 22.6436H33.2919C32.3453 22.6436 31.4492 23.0734 30.8557 23.8112V22.6436C32.2008 22.6418 33.2901 21.5526 33.2919 20.2074C33.2919 20.1152 33.2554 20.0264 33.1901 19.9612C33.1249 19.8959 33.0361 19.8594 32.9439 19.8594H32.5959C31.7398 19.8611 30.9463 20.3118 30.5078 21.047C30.0693 20.3118 29.2759 19.8611 28.4197 19.8594H28.0717C27.8795 19.8594 27.7237 20.0151 27.7237 20.2074C27.7255 21.5525 28.8147 22.6418 30.1599 22.6436V23.8112C29.5665 23.0734 28.6704 22.6436 27.7237 22.6436H27.0277C26.8354 22.6436 26.6797 22.7993 26.6797 22.9916C26.6814 24.7203 28.083 26.122 29.8117 26.1236H30.1597V27.6392C29.5663 26.9014 28.6702 26.4716 27.7235 26.4716L27.7242 26.4716ZM32.5616 20.5555C32.398 21.3525 31.7046 21.9302 30.8911 21.9476C31.0547 21.1506 31.7481 20.5729 32.5616 20.5555ZM28.455 20.5555C29.2684 20.5729 29.9618 21.1506 30.1254 21.9476C29.3119 21.9302 28.6185 21.3525 28.455 20.5555ZM29.8122 29.2557C28.602 29.254 27.5754 28.3657 27.4005 27.1676H27.7242C28.9344 27.1694 29.961 28.0577 30.1359 29.2557H29.8122ZM33.2923 27.1676H33.616C33.4411 28.3657 32.4145 29.254 31.2043 29.2557H30.8806C31.0555 28.0577 32.0821 27.1694 33.2923 27.1676ZM33.2923 23.3394H33.616C33.4411 24.5374 32.4145 25.4257 31.2043 25.4275H30.8806C31.0555 24.2294 32.0821 23.3411 33.2923 23.3394ZM29.8122 25.4275C28.602 25.4257 27.5754 24.5374 27.4005 23.3394H27.7242C28.9344 23.3411 29.961 24.2294 30.1359 25.4275H29.8122Z" fill="#7466AA"/>
</g>
<defs>
<filter id="filter0_b" x="-3" y="-3" width="66" height="66" filterUnits="userSpaceOnUse" color-interpolation-filters="sRGB">
<feFlood flood-opacity="0" result="BackgroundImageFix"/>
<feGaussianBlur in="BackgroundImage" stdDeviation="6"/>
<feComposite in2="SourceAlpha" operator="in" result="effect1_backgroundBlur"/>
<feBlend mode="normal" in="SourceGraphic" in2="effect1_backgroundBlur" result="shape"/>
</filter>
<linearGradient id="paint0_linear" x1="9" y1="9" x2="18.593" y2="56.2928" gradientUnits="userSpaceOnUse">
<stop stop-color="white" stop-opacity="0.3"/>
<stop offset="1" stop-color="white"/>
</linearGradient>
<linearGradient id="paint1_linear" x1="10.12" y1="9.49138" x2="19.2963" y2="56.5977" gradientUnits="userSpaceOnUse">
<stop stop-color="white"/>
<stop offset="1" stop-color="white" stop-opacity="0"/>
</linearGradient>
<clipPath id="clip0">
<rect width="16.2273" height="21" fill="white" transform="translate(21.5996 19.7998)"/>
</clipPath>
</defs>
</svg>
