<svg width="60" height="60" viewBox="0 0 60 60" fill="none" xmlns="http://www.w3.org/2000/svg">
<rect width="60" height="60" rx="6" fill="#A299C7" fill-opacity="0.6"/>
<g filter="url(#filter0_b)">
<circle cx="30" cy="30" r="21" fill="url(#paint0_linear)"/>
<circle cx="30" cy="30" r="20.5" stroke="url(#paint1_linear)"/>
</g>
<path d="M29.5001 20.9844C25.5445 20.9844 22.4453 23.867 22.4453 27.5469C22.4453 29.2941 23.1344 31.6074 24.2434 33.5844C24.8472 34.6598 25.5346 36.0502 25.5584 37.3234C25.3648 37.4965 25.2491 37.7402 25.236 37.9994C25.2237 38.2586 25.3148 38.5121 25.4903 38.7032C25.2278 38.9903 25.1605 39.4062 25.3188 39.7614C25.4763 40.1174 25.8299 40.3455 26.2187 40.3438H32.7812C33.1701 40.3455 33.5236 40.1174 33.6811 39.7614C33.8395 39.4062 33.7722 38.9903 33.5097 38.7032C33.6852 38.5121 33.7771 38.2578 33.7648 37.9986C33.7517 37.7385 33.6352 37.4957 33.4416 37.3218C33.4654 36.0487 34.1536 34.6581 34.7565 33.5827C35.8656 31.6074 36.5547 29.2941 36.5547 27.5469C36.5547 23.8671 33.4555 20.9844 29.4999 20.9844L29.5001 20.9844ZM32.7813 37.7189C32.9626 37.7189 33.1094 37.8657 33.1094 38.047C33.1094 38.2283 32.9626 38.3751 32.7813 38.3751H26.2188C26.0375 38.3751 25.8907 38.2283 25.8907 38.047C25.8907 37.8657 26.0375 37.7189 26.2188 37.7189H32.7813ZM32.7813 39.6876H26.2188C26.0375 39.6876 25.8907 39.5408 25.8907 39.3595C25.8907 39.1782 26.0375 39.0314 26.2188 39.0314H32.7813C32.9626 39.0314 33.1094 39.1782 33.1094 39.3595C33.1094 39.5408 32.9626 39.6876 32.7813 39.6876ZM34.1849 33.262C33.5803 34.3391 32.8937 35.7197 32.7936 37.0626H29.8282V35.0939H29.1719V37.0626H26.2065C26.1081 35.7198 25.419 34.3391 24.8153 33.262C23.7743 31.4065 23.1016 29.1628 23.1016 27.5469C23.1016 24.2352 25.9121 21.6406 29.5001 21.6406C33.0882 21.6406 35.8986 24.2352 35.8986 27.5469C35.8986 29.1629 35.226 31.4065 34.185 33.262H34.1849Z" fill="#7466AA"/>
<path d="M32.8267 24.6897C32.7274 23.5339 31.7685 22.6414 30.6093 22.625C30.218 22.6266 29.8349 22.7349 29.5002 22.9384C29.1655 22.7349 28.7825 22.6266 28.3912 22.625C27.2321 22.6414 26.2731 23.5339 26.1738 24.6897C25.2148 24.9916 24.5668 25.8857 24.5783 26.8905C24.5783 27.3581 24.7177 27.8158 24.9802 28.203C24.7177 28.5902 24.5783 29.0479 24.5783 29.5155C24.5668 30.5204 25.2148 31.4145 26.1738 31.7163C26.2731 32.8721 27.232 33.7646 28.3912 33.781C28.7825 33.7794 29.1656 33.6711 29.5002 33.4677C29.8349 33.6711 30.218 33.7794 30.6093 33.781C31.7684 33.7646 32.7273 32.8721 32.8267 31.7163C33.7856 31.4144 34.4337 30.5203 34.4222 29.5155C34.4222 29.0479 34.2827 28.5902 34.0202 28.203C34.2827 27.8158 34.4222 27.3581 34.4222 26.8905C34.4337 25.8856 33.7856 24.9915 32.8267 24.6897ZM26.8459 31.7747C27.489 31.618 27.9147 31.0069 27.8393 30.349C27.763 29.6919 27.2093 29.1932 26.5473 29.1874V29.8437C26.8894 29.8568 27.1634 30.1308 27.1773 30.4729C27.1912 30.8149 26.9402 31.1103 26.6006 31.1513C26.5834 31.1431 26.5653 31.1365 26.5473 31.1316C25.7746 30.9847 25.22 30.3023 25.2348 29.5156C25.234 29.1128 25.3784 28.7232 25.6417 28.418C25.7483 28.2949 25.7483 28.1112 25.6417 27.9881C25.3784 27.683 25.234 27.2933 25.2348 26.8906C25.22 26.1039 25.7746 25.4214 26.5473 25.2745C26.7081 25.2335 26.8205 25.0875 26.8188 24.9218C26.8016 24.035 27.5046 23.3009 28.3914 23.2812C28.667 23.2812 28.9369 23.3566 29.1723 23.4994V25.5781C29.1723 25.9406 28.8787 26.2343 28.5161 26.2343C28.1535 26.2343 27.8598 25.9406 27.8598 25.5781H27.2036C27.2036 25.9259 27.3422 26.2597 27.5883 26.5058C27.8344 26.7519 28.1682 26.8906 28.5161 26.8906C28.7474 26.8889 28.9738 26.8266 29.1723 26.7084V32.9068C28.9369 33.0495 28.667 33.125 28.3914 33.125C27.617 33.1111 26.964 32.541 26.8459 31.7748L26.8459 31.7747ZM33.3592 28.4181C33.6226 28.7232 33.7669 29.1129 33.7661 29.5156C33.7809 30.3023 33.2263 30.9848 32.4536 31.1317C32.2928 31.1727 32.1804 31.3187 32.1821 31.4844C32.1993 32.3712 31.4963 33.1053 30.6095 33.125C30.3339 33.125 30.064 33.0496 29.8286 32.9068V29.1875C29.8286 28.8249 30.1223 28.5312 30.4848 28.5312C30.8474 28.5312 31.1411 28.8249 31.1411 29.1875H31.7973C31.7973 28.8397 31.6587 28.5058 31.4126 28.2597C31.1665 28.0136 30.8327 27.875 30.4848 27.875C30.2535 27.8766 30.0271 27.939 29.8286 28.0571V23.4995C30.064 23.3567 30.3339 23.2813 30.6095 23.2813C31.3839 23.2952 32.0369 23.8653 32.155 24.6315C31.5119 24.7882 31.0862 25.3993 31.1616 26.0572C31.2379 26.7143 31.7916 27.213 32.4536 27.2188V26.5625C32.1115 26.5494 31.8375 26.2754 31.8236 25.9333C31.8096 25.5913 32.0607 25.2959 32.4003 25.2549C32.4175 25.2631 32.4347 25.2697 32.4528 25.2746C33.2255 25.4215 33.7809 26.104 33.7661 26.8906C33.7669 27.2934 33.6225 27.683 33.3592 27.9882C33.2526 28.1113 33.2526 28.295 33.3592 28.4181L33.3592 28.4181Z" fill="#7466AA"/>
<path d="M39.0156 21.9688C38.4718 21.9688 38.0313 21.5282 38.0313 20.9844C38.0313 20.8031 37.8844 20.6562 37.7031 20.6562C37.5218 20.6562 37.375 20.8031 37.375 20.9844C37.375 21.5282 36.9345 21.9688 36.3906 21.9688C36.2093 21.9688 36.0625 22.1156 36.0625 22.2969C36.0625 22.4782 36.2093 22.625 36.3906 22.625C36.9345 22.625 37.375 23.0655 37.375 23.6094C37.375 23.7907 37.5218 23.9375 37.7031 23.9375C37.8844 23.9375 38.0313 23.7907 38.0313 23.6094C38.0313 23.0655 38.4718 22.625 39.0156 22.625C39.1969 22.625 39.3438 22.4782 39.3438 22.2969C39.3438 22.1156 39.1969 21.9688 39.0156 21.9688ZM37.7031 22.625C37.6096 22.5011 37.4989 22.3904 37.375 22.2969C37.4989 22.2034 37.6096 22.0926 37.7031 21.9688C37.7966 22.0926 37.9074 22.2034 38.0313 22.2969C37.9074 22.3904 37.7966 22.5011 37.7031 22.625Z" fill="#7466AA"/>
<path d="M19.9844 22.625C20.5282 22.625 20.9688 23.0655 20.9688 23.6094C20.9688 23.7907 21.1156 23.9375 21.2969 23.9375C21.4782 23.9375 21.625 23.7907 21.625 23.6094C21.625 23.0655 22.0655 22.625 22.6094 22.625C22.7907 22.625 22.9375 22.4782 22.9375 22.2969C22.9375 22.1156 22.7907 21.9688 22.6094 21.9688C22.0655 21.9688 21.625 21.5282 21.625 20.9844C21.625 20.8031 21.4782 20.6562 21.2969 20.6562C21.1156 20.6562 20.9688 20.8031 20.9688 20.9844C20.9688 21.5282 20.5282 21.9688 19.9844 21.9688C19.8031 21.9688 19.6562 22.1156 19.6562 22.2969C19.6562 22.4782 19.8031 22.625 19.9844 22.625ZM21.2969 21.9688C21.3904 22.0926 21.5011 22.2034 21.625 22.2969C21.5011 22.3904 21.3904 22.5011 21.2969 22.625C21.2034 22.5011 21.0926 22.3904 20.9688 22.2969C21.0926 22.2034 21.2034 22.0926 21.2969 21.9688Z" fill="#7466AA"/>
<path d="M21.2969 34.4375C21.2969 34.6188 21.4437 34.7656 21.625 34.7656C21.8063 34.7656 21.9531 34.6188 21.9531 34.4375C21.9531 33.8936 22.3936 33.4531 22.9375 33.4531C23.1188 33.4531 23.2656 33.3063 23.2656 33.125C23.2656 32.9437 23.1188 32.7969 22.9375 32.7969C22.3936 32.7969 21.9531 32.3564 21.9531 31.8125C21.9531 31.6312 21.8063 31.4844 21.625 31.4844C21.4437 31.4844 21.2969 31.6312 21.2969 31.8125C21.2969 32.3564 20.8564 32.7969 20.3125 32.7969C20.1312 32.7969 19.9844 32.9437 19.9844 33.125C19.9844 33.3063 20.1312 33.4531 20.3125 33.4531C20.8564 33.4531 21.2969 33.8936 21.2969 34.4375ZM21.625 32.7969C21.7185 32.9207 21.8293 33.0315 21.9531 33.125C21.8293 33.2185 21.7185 33.3293 21.625 33.4531C21.5315 33.3293 21.4207 33.2185 21.2969 33.125C21.4207 33.0315 21.5315 32.9207 21.625 32.7969Z" fill="#7466AA"/>
<path d="M38.3594 34.7656C37.8155 34.7656 37.375 34.3251 37.375 33.7812C37.375 33.6 37.2282 33.4531 37.0469 33.4531C36.8656 33.4531 36.7187 33.6 36.7187 33.7812C36.7187 34.3251 36.2782 34.7656 35.7344 34.7656C35.5531 34.7656 35.4062 34.9125 35.4062 35.0938C35.4062 35.275 35.5531 35.4219 35.7344 35.4219C36.2782 35.4219 36.7187 35.8624 36.7187 36.4062C36.7187 36.5875 36.8656 36.7344 37.0469 36.7344C37.2282 36.7344 37.375 36.5875 37.375 36.4062C37.375 35.8624 37.8155 35.4219 38.3594 35.4219C38.5407 35.4219 38.6875 35.275 38.6875 35.0938C38.6875 34.9125 38.5407 34.7656 38.3594 34.7656ZM37.0469 35.4219C36.9534 35.298 36.8426 35.1873 36.7187 35.0938C36.8426 35.0002 36.9534 34.8895 37.0469 34.7656C37.1404 34.8895 37.2511 35.0002 37.375 35.0938C37.2511 35.1873 37.1404 35.298 37.0469 35.4219Z" fill="#7466AA"/>
<defs>
<filter id="filter0_b" x="-3" y="-3" width="66" height="66" filterUnits="userSpaceOnUse" color-interpolation-filters="sRGB">
<feFlood flood-opacity="0" result="BackgroundImageFix"/>
<feGaussianBlur in="BackgroundImage" stdDeviation="6"/>
<feComposite in2="SourceAlpha" operator="in" result="effect1_backgroundBlur"/>
<feBlend mode="normal" in="SourceGraphic" in2="effect1_backgroundBlur" result="shape"/>
</filter>
<linearGradient id="paint0_linear" x1="9" y1="9" x2="18.593" y2="56.2928" gradientUnits="userSpaceOnUse">
<stop stop-color="white" stop-opacity="0.3"/>
<stop offset="1" stop-color="white"/>
</linearGradient>
<linearGradient id="paint1_linear" x1="10.12" y1="9.49138" x2="19.2963" y2="56.5977" gradientUnits="userSpaceOnUse">
<stop stop-color="white"/>
<stop offset="1" stop-color="white" stop-opacity="0"/>
</linearGradient>
</defs>
</svg>
