<svg width="280" height="256" viewBox="0 0 280 256" fill="none" xmlns="http://www.w3.org/2000/svg">
<path opacity="0.0399926" fill-rule="evenodd" clip-rule="evenodd" d="M10 256C159.117 256 280 135.117 280 -14C280 -163.117 159.117 -284 10 -284C-139.117 -284 -260 -163.117 -260 -14C-260 135.117 -139.117 256 10 256Z" fill="white"/>
<path opacity="0.0399926" fill-rule="evenodd" clip-rule="evenodd" d="M10 190C122.666 190 214 98.6661 214 -14C214 -126.666 122.666 -218 10 -218C-102.666 -218 -194 -126.666 -194 -14C-194 98.6661 -102.666 190 10 190Z" fill="white"/>
<path opacity="0.0399926" fill-rule="evenodd" clip-rule="evenodd" d="M10 106C76.2742 106 130 52.2742 130 -14C130 -80.2742 76.2742 -134 10 -134C-56.2742 -134 -110 -80.2742 -110 -14C-110 52.2742 -56.2742 106 10 106Z" fill="white"/>
</svg>
