<svg width="375" height="80" viewBox="0 0 375 80" fill="none" xmlns="http://www.w3.org/2000/svg">
<rect width="375" height="80" fill="url(#paint0_linear_15743_42590)"/>
<mask id="mask0_15743_42590" style="mask-type:alpha" maskUnits="userSpaceOnUse" x="0" y="0" width="375" height="80">
<rect width="375" height="80" fill="#5B7CFD"/>
</mask>
<g mask="url(#mask0_15743_42590)">
<path opacity="0.2" d="M238 -18.6957C238 39.1742 184.05 86.0869 117.5 86.0869C50.9497 86.0869 -3 39.1742 -3 -18.6957C-3 -76.5655 50.9497 -123.478 117.5 -123.478C184.05 -123.478 238 -76.5655 238 -18.6957Z" stroke="url(#paint1_linear_15743_42590)" stroke-width="86.3357"/>
<path d="M-8 32C-8 32 -3.3137 23.9525 9.18309 22.72C21.6799 21.4875 29.4904 18.0075 34.9166 1.7675C40.3429 -14.4725 66.4875 -7.73 74.7091 -9.3975C82.9306 -11.065 86.877 -26 71.8315 -26" stroke="white" stroke-width="0.663745" stroke-dasharray="5.31"/>
<path d="M308 92C308 92 313.571 80.9 328.429 79.2C343.286 77.5 352.572 72.7 359.023 50.3C365.474 27.9 396.557 37.2 406.332 34.9C416.106 32.6 420.798 12 402.911 12" stroke="white" stroke-dasharray="8"/>
</g>
<defs>
<linearGradient id="paint0_linear_15743_42590" x1="3.34089e-07" y1="40" x2="355.917" y2="108.238" gradientUnits="userSpaceOnUse">
<stop stop-color="#7D31B5"/>
<stop offset="1" stop-color="#493191"/>
</linearGradient>
<linearGradient id="paint1_linear_15743_42590" x1="74.9122" y1="-32.4035" x2="-197.12" y2="151.103" gradientUnits="userSpaceOnUse">
<stop stop-color="white" stop-opacity="0.63"/>
<stop offset="1" stop-color="white" stop-opacity="0.25"/>
</linearGradient>
</defs>
</svg>
