<svg width="60" height="60" viewBox="0 0 60 60" fill="none" xmlns="http://www.w3.org/2000/svg">
<g filter="url(#filter0_b_12267_19547)">
<circle cx="30" cy="30" r="30" fill="url(#paint0_linear_12267_19547)"/>
<circle cx="30" cy="30" r="29.5" stroke="#7466AA"/>
</g>
<path d="M21.6448 34.2279C19.3755 34.2279 17.5293 32.3574 17.5293 30.0583C17.5293 27.7592 19.3755 25.8887 21.6448 25.8887C23.9141 25.8887 25.7603 27.7592 25.7603 30.0583C25.7603 32.3574 23.9141 34.2279 21.6448 34.2279ZM21.6448 26.7226C19.8294 26.7226 18.3524 28.2191 18.3524 30.0583C18.3524 31.8975 19.8294 33.394 21.6448 33.394C23.4601 33.394 24.9372 31.8975 24.9372 30.0583C24.9372 28.2191 23.4601 26.7226 21.6448 26.7226Z" fill="#7466AA"/>
<path d="M25.3484 42.5677H17.9406C16.8059 42.5677 15.8828 41.6324 15.8828 40.4829V39.232C15.8828 36.013 18.4673 33.3945 21.6445 33.3945C24.8216 33.3945 27.4062 36.013 27.4062 39.232V40.4829C27.4062 41.6324 26.4831 42.5677 25.3484 42.5677ZM21.6445 34.2285C18.9213 34.2285 16.7059 36.473 16.7059 39.232V40.4829C16.7059 41.1725 17.2599 41.7338 17.9406 41.7338H25.3484C26.0291 41.7338 26.5831 41.1725 26.5831 40.4829V39.232C26.5831 36.473 24.3677 34.2285 21.6445 34.2285Z" fill="#7466AA"/>
<path d="M20.0086 36.2832C19.8567 36.2832 19.7106 36.1982 19.6394 36.0506C19.5386 35.8442 19.6222 35.594 19.8263 35.4922C19.8975 35.4564 19.9699 35.4226 20.0428 35.3913C20.2526 35.3 20.4938 35.3997 20.5827 35.6115C20.6716 35.8233 20.5745 36.0685 20.3654 36.1586C20.3061 36.1844 20.2481 36.2115 20.1909 36.2399C20.1316 36.2695 20.0695 36.2832 20.0086 36.2832Z" fill="#7466AA"/>
<path d="M17.9408 39.6492C17.7137 39.6492 17.5293 39.4628 17.5293 39.2322C17.5293 38.6702 17.6384 38.1248 17.8536 37.6098C18.0289 37.1903 18.2709 36.8038 18.5718 36.4611C18.7228 36.2893 18.9829 36.2734 19.1529 36.4269C19.3228 36.5799 19.3377 36.8438 19.1866 37.0156C18.9454 37.29 18.7516 37.5994 18.6117 37.9351C18.4396 38.3462 18.3524 38.7827 18.3524 39.2322C18.3524 39.4628 18.168 39.6492 17.9408 39.6492Z" fill="#7466AA"/>
<path d="M36.4592 34.2279C34.19 34.2279 32.3438 32.3574 32.3438 30.0583C32.3438 27.7592 34.19 25.8887 36.4592 25.8887C38.7285 25.8887 40.5747 27.7592 40.5747 30.0583C40.5747 32.3574 38.7285 34.2279 36.4592 34.2279ZM36.4592 26.7226C34.6439 26.7226 33.1668 28.2191 33.1668 30.0583C33.1668 31.8975 34.6439 33.394 36.4592 33.394C38.2746 33.394 39.7516 31.8975 39.7516 30.0583C39.7516 28.2191 38.2746 26.7226 36.4592 26.7226Z" fill="#7466AA"/>
<path d="M40.1629 42.5677H32.755C31.6204 42.5677 30.6973 41.6324 30.6973 40.4829V39.232C30.6973 36.013 33.2818 33.3945 36.459 33.3945C39.6361 33.3945 42.2206 36.013 42.2206 39.232V40.4829C42.2206 41.6324 41.2975 42.5677 40.1629 42.5677ZM36.459 34.2285C33.7357 34.2285 31.5204 36.473 31.5204 39.232V40.4829C31.5204 41.1725 32.0743 41.7338 32.755 41.7338H40.1629C40.8436 41.7338 41.3975 41.1725 41.3975 40.4829V39.232C41.3975 36.473 39.1822 34.2285 36.459 34.2285Z" fill="#7466AA"/>
<path d="M34.827 36.2809C34.6747 36.2809 34.5282 36.195 34.457 36.047C34.357 35.8402 34.4418 35.59 34.6459 35.4891C34.7159 35.4545 34.7867 35.4216 34.8591 35.3903C35.0682 35.3011 35.3102 35.3995 35.3987 35.6113C35.4876 35.8231 35.39 36.0683 35.1805 36.1583C35.1221 36.1834 35.0645 36.2105 35.0077 36.2384C34.9492 36.2676 34.8875 36.2809 34.827 36.2809Z" fill="#7466AA"/>
<path d="M32.7553 39.6487C32.5281 39.6487 32.3438 39.4623 32.3438 39.2317C32.3438 38.6696 32.4528 38.1243 32.6681 37.6093C32.8434 37.1902 33.0845 36.8041 33.385 36.4622C33.5356 36.2904 33.7961 36.2742 33.9661 36.428C34.1361 36.581 34.1513 36.8446 34.0003 37.0168C33.7599 37.2903 33.5669 37.5993 33.4265 37.9349C33.2541 38.3457 33.1669 38.7822 33.1669 39.2317C33.1669 39.4623 32.9825 39.6487 32.7553 39.6487Z" fill="#7466AA"/>
<path d="M33.5794 25.8889C33.4593 25.8889 33.3428 25.8351 33.2634 25.7392L31.3291 23.3871H26.7757L24.8414 25.7392C24.7381 25.8639 24.5715 25.9164 24.4175 25.8743C24.2624 25.8317 24.1455 25.7012 24.1192 25.5403L23.7652 23.3871H19.9983C19.3176 23.3871 18.7637 22.8259 18.7637 22.1362V17.1327C18.7637 16.4431 19.3176 15.8818 19.9983 15.8818H38.1065C38.7872 15.8818 39.3411 16.4431 39.3411 17.1327V22.1362C39.3411 22.8259 38.7872 23.3871 38.1065 23.3871H34.3396L33.9852 25.5403C33.9589 25.7012 33.8424 25.8317 33.6869 25.8743C33.6515 25.8839 33.6152 25.8889 33.5794 25.8889ZM26.5831 22.5532H31.5217C31.6439 22.5532 31.7596 22.6082 31.8378 22.7029L33.321 24.5062L33.5852 22.9014C33.6181 22.7008 33.7897 22.5532 33.991 22.5532H38.1065C38.3332 22.5532 38.518 22.3664 38.518 22.1362V17.1327C38.518 16.9026 38.3332 16.7158 38.1065 16.7158H19.9983C19.7716 16.7158 19.5868 16.9026 19.5868 17.1327V22.1362C19.5868 22.3664 19.7716 22.5532 19.9983 22.5532H24.1138C24.3151 22.5532 24.4867 22.7008 24.5196 22.9018L24.7838 24.5066L26.267 22.7033C26.3452 22.6082 26.4609 22.5532 26.5831 22.5532Z" fill="#7466AA"/>
<path d="M34.4028 19.2178H23.7026C23.4754 19.2178 23.291 19.0314 23.291 18.8008C23.291 18.5702 23.4754 18.3838 23.7026 18.3838H34.4028C34.63 18.3838 34.8144 18.5702 34.8144 18.8008C34.8144 19.0314 34.63 19.2178 34.4028 19.2178Z" fill="#7466AA"/>
<path d="M31.1104 20.8856H23.7026C23.4754 20.8856 23.291 20.6993 23.291 20.4687C23.291 20.2381 23.4754 20.0518 23.7026 20.0518H31.1104C31.3376 20.0518 31.522 20.2381 31.522 20.4687C31.522 20.6993 31.3376 20.8856 31.1104 20.8856Z" fill="#7466AA"/>
<path d="M34.4028 20.8853C34.2958 20.8853 34.1888 20.8395 34.1106 20.7644C34.0365 20.6852 33.9912 20.5768 33.9912 20.4684C33.9912 20.36 34.0365 20.2511 34.1106 20.1723C34.2628 20.0181 34.5427 20.0181 34.695 20.1723C34.769 20.2511 34.8143 20.36 34.8143 20.4684C34.8143 20.5768 34.769 20.6852 34.695 20.7644C34.6168 20.8395 34.5098 20.8853 34.4028 20.8853Z" fill="#7466AA"/>
<path d="M32.7553 20.8853C32.6483 20.8853 32.5413 20.8395 32.4631 20.7644C32.389 20.6852 32.3438 20.581 32.3438 20.4684C32.3438 20.3554 32.389 20.2511 32.4631 20.1723C32.6154 20.0181 32.8952 20.0181 33.0475 20.1723C33.1216 20.2511 33.1668 20.36 33.1668 20.4684C33.1668 20.5768 33.1216 20.6852 33.0475 20.7644C32.9693 20.8395 32.8664 20.8853 32.7553 20.8853Z" fill="#7466AA"/>
<path d="M29.0532 30.4763C28.9461 30.4763 28.8391 30.4304 28.761 30.3553C28.6869 30.2761 28.6416 30.1677 28.6416 30.0593C28.6416 29.9508 28.6869 29.842 28.761 29.7632C28.9132 29.6089 29.1931 29.6089 29.3453 29.7632C29.4194 29.842 29.4647 29.9508 29.4647 30.0593C29.4647 30.1677 29.4194 30.2761 29.3453 30.3553C29.2672 30.4304 29.1602 30.4763 29.0532 30.4763Z" fill="#7466AA"/>
<path d="M27.4067 30.4763C27.2997 30.4763 27.1927 30.4304 27.1145 30.3553C27.0404 30.2761 26.9951 30.1677 26.9951 30.0593C26.9951 29.9508 27.0404 29.842 27.1145 29.7632C27.2667 29.6089 27.5466 29.6089 27.6989 29.7632C27.7729 29.8382 27.8182 29.9462 27.8182 30.0593C27.8182 30.1718 27.7729 30.2761 27.6989 30.3553C27.6207 30.4304 27.5137 30.4763 27.4067 30.4763Z" fill="#7466AA"/>
<path d="M30.6977 30.4763C30.5907 30.4763 30.4837 30.4304 30.4055 30.3553C30.3314 30.2761 30.2861 30.1677 30.2861 30.0593C30.2861 29.9508 30.3314 29.842 30.4055 29.7632C30.5619 29.6089 30.8376 29.6089 30.9899 29.7632C31.064 29.842 31.1092 29.9462 31.1092 30.0593C31.1092 30.1677 31.064 30.2761 30.9899 30.3553C30.9117 30.4304 30.8047 30.4763 30.6977 30.4763Z" fill="#7466AA"/>
<defs>
<filter id="filter0_b_12267_19547" x="-12" y="-12" width="84" height="84" filterUnits="userSpaceOnUse" color-interpolation-filters="sRGB">
<feFlood flood-opacity="0" result="BackgroundImageFix"/>
<feGaussianBlur in="BackgroundImage" stdDeviation="6"/>
<feComposite in2="SourceAlpha" operator="in" result="effect1_backgroundBlur_12267_19547"/>
<feBlend mode="normal" in="SourceGraphic" in2="effect1_backgroundBlur_12267_19547" result="shape"/>
</filter>
<linearGradient id="paint0_linear_12267_19547" x1="0" y1="0" x2="13.7043" y2="67.5611" gradientUnits="userSpaceOnUse">
<stop stop-color="white" stop-opacity="0.3"/>
<stop offset="1" stop-color="white"/>
</linearGradient>
</defs>
</svg>
