<?xml version="1.0" encoding="utf-8"?>
<!-- Generator: Adobe Illustrator 23.0.2, SVG Export Plug-In . SVG Version: 6.00 Build 0)  -->
<svg version="1.1" id="Layer_1" xmlns="http://www.w3.org/2000/svg" xmlns:xlink="http://www.w3.org/1999/xlink" x="0px" y="0px"
	 viewBox="0 0 30 30" style="enable-background:new 0 0 30 30;" xml:space="preserve">
<style type="text/css">
	.st0{fill:#170072;}
</style>
<path class="st0" d="M15,0C6.7,0,0,6.7,0,15c0,4.4,1.9,8.4,5,11.2v-2.2c0-3.2,6.5-4.8,9.7-4.8s9.7,1.6,9.7,4.8v2.8
	C27.8,24,30,19.7,30,15C30,6.7,23.3,0,15,0z M14.8,16.7c-2.7,0-4.8-2.2-4.8-4.8S12.2,7,14.8,7s4.8,2.2,4.8,4.8S17.5,16.7,14.8,16.7z
	"/>
</svg>
