<svg width="60" height="60" viewBox="0 0 60 60" fill="none" xmlns="http://www.w3.org/2000/svg">
<rect width="60" height="60" rx="6" fill="#A299C7" fill-opacity="0.6"/>
<g filter="url(#filter0_b)">
<circle cx="30" cy="30" r="21" fill="url(#paint0_linear)"/>
<circle cx="30" cy="30" r="20.5" stroke="url(#paint1_linear)"/>
</g>
<g clip-path="url(#clip0)">
<path d="M31.3155 33.6296C31.2523 33.5657 31.1654 33.5296 31.0751 33.5296C30.9849 33.5296 30.898 33.5657 30.8348 33.6296L29.8389 34.4967V31.1777C29.8389 30.9906 29.6872 30.8389 29.5001 30.8389C29.3131 30.8389 29.1614 30.9906 29.1614 31.1777V34.4967L28.1589 33.6026C28.0187 33.4771 27.8029 33.4894 27.6782 33.6296C27.5527 33.7699 27.565 33.9857 27.7053 34.1112L29.25 35.4663L29.2491 35.4655C29.396 35.5836 29.6043 35.5836 29.7512 35.4655L31.2958 34.1104L31.295 34.1112C31.3623 34.0497 31.4016 33.9652 31.4057 33.8749C31.4098 33.7839 31.377 33.6961 31.3155 33.6296L31.3155 33.6296Z" fill="#7466AA"/>
<path d="M34.2422 41.0008H24.7577C23.5904 40.9991 22.4715 40.5348 21.6464 39.7088C20.8212 38.8836 20.3569 37.7647 20.3552 36.5974V21.0173C20.3552 20.4562 20.8097 20.001 21.3708 20.001H32.4607C32.6477 20.001 32.7994 20.1527 32.7994 20.3398C32.7994 20.5268 32.6477 20.6786 32.4607 20.6786H21.3708C21.1837 20.6786 21.032 20.8303 21.032 21.0174V36.5983V36.5975C21.0344 37.5851 21.4274 38.5318 22.1254 39.2298C22.8235 39.9287 23.7702 40.3217 24.7578 40.3233H34.2422C35.2299 40.3217 36.1765 39.9287 36.8746 39.2298C37.5727 38.5318 37.9656 37.5851 37.9681 36.5975V26.0303C37.9681 25.8433 38.119 25.6915 38.306 25.6915C38.4939 25.6915 38.6448 25.8433 38.6448 26.0303V36.5975C38.6432 37.7648 38.1789 38.8838 37.3537 39.7088C36.5284 40.5349 35.4095 40.9992 34.2423 41.0008L34.2422 41.0008Z" fill="#7466AA"/>
<path d="M38.3062 26.2125H33.4491C32.888 26.2125 32.4336 25.7572 32.4336 25.1961V20.339C32.4328 20.2004 32.5165 20.0757 32.6444 20.0232C32.7724 19.9707 32.92 20.0019 33.016 20.102L38.5506 25.6365C38.6457 25.7341 38.6736 25.8793 38.6203 26.0057C38.567 26.1312 38.4431 26.2132 38.3061 26.2124L38.3062 26.2125ZM33.1112 21.1586V25.2232C33.1112 25.3126 33.1465 25.3996 33.2097 25.4627C33.2737 25.5259 33.3598 25.562 33.4492 25.562H37.5138L33.1112 21.1586Z" fill="#7466AA"/>
<path d="M29.4999 38.2909C28.1521 38.2909 26.8602 37.7552 25.907 36.8029C24.9546 35.8497 24.4189 34.5578 24.4189 33.21C24.4189 31.863 24.9546 30.5703 25.907 29.6179C26.8602 28.6647 28.1521 28.1299 29.4999 28.1299C30.8477 28.1299 32.1396 28.6647 33.0928 29.6179C34.0452 30.5703 34.5808 31.863 34.5808 33.21C34.5783 34.5569 34.0427 35.848 33.0903 36.8006C32.1379 37.7531 30.8466 38.2894 29.4997 38.2911L29.4999 38.2909ZM29.4999 28.8073V28.8065C28.3317 28.8065 27.2119 29.2708 26.386 30.0968C25.5608 30.9221 25.0965 32.0426 25.0965 33.2099C25.0965 34.378 25.5608 35.4978 26.386 36.3237C27.2121 37.149 28.3318 37.6133 29.4999 37.6133C30.668 37.6133 31.7878 37.149 32.6138 36.3237C33.439 35.4977 33.9033 34.378 33.9033 33.2099C33.9016 32.0426 33.4365 30.9236 32.6113 30.0985C31.7861 29.2733 30.6672 28.809 29.4999 28.8065L29.4999 28.8073Z" fill="#7466AA"/>
</g>
<defs>
<filter id="filter0_b" x="-3" y="-3" width="66" height="66" filterUnits="userSpaceOnUse" color-interpolation-filters="sRGB">
<feFlood flood-opacity="0" result="BackgroundImageFix"/>
<feGaussianBlur in="BackgroundImage" stdDeviation="6"/>
<feComposite in2="SourceAlpha" operator="in" result="effect1_backgroundBlur"/>
<feBlend mode="normal" in="SourceGraphic" in2="effect1_backgroundBlur" result="shape"/>
</filter>
<linearGradient id="paint0_linear" x1="9" y1="9" x2="18.593" y2="56.2928" gradientUnits="userSpaceOnUse">
<stop stop-color="white" stop-opacity="0.3"/>
<stop offset="1" stop-color="white"/>
</linearGradient>
<linearGradient id="paint1_linear" x1="10.12" y1="9.49138" x2="19.2963" y2="56.5977" gradientUnits="userSpaceOnUse">
<stop stop-color="white"/>
<stop offset="1" stop-color="white" stop-opacity="0"/>
</linearGradient>
<clipPath id="clip0">
<rect width="21" height="21" fill="white" transform="translate(19 20)"/>
</clipPath>
</defs>
</svg>
