<svg width="56" height="56" viewBox="0 0 56 56" fill="none" xmlns="http://www.w3.org/2000/svg">
<rect width="56" height="56" rx="6" fill="#C15075" fill-opacity="0.2"/>
<path d="M40 19.9733C35.56 19.5333 31.0933 19.3066 26.64 19.3066C24 19.3066 21.36 19.44 18.72 19.7066L16 19.9733" stroke="#CD7391" stroke-width="1.5" stroke-linecap="round" stroke-linejoin="round"/>
<path d="M23.333 18.6267L23.6263 16.88C23.8397 15.6134 23.9997 14.6667 26.253 14.6667H29.7463C31.9997 14.6667 32.173 15.6667 32.373 16.8934L32.6663 18.6267" stroke="#CD7391" stroke-width="1.5" stroke-linecap="round" stroke-linejoin="round"/>
<path d="M37.1339 24.1866L36.2672 37.6133C36.1205 39.7066 36.0005 41.3333 32.2805 41.3333H23.7205C20.0005 41.3333 19.8805 39.7066 19.7339 37.6133L18.8672 24.1866" stroke="#CD7391" stroke-width="1.5" stroke-linecap="round" stroke-linejoin="round"/>
<path d="M25.7734 34H30.2134" stroke="#CD7391" stroke-width="1.5" stroke-linecap="round" stroke-linejoin="round"/>
<path d="M24.667 28.6667H31.3337" stroke="#CD7391" stroke-width="1.5" stroke-linecap="round" stroke-linejoin="round"/>
</svg>
