<svg width="48" height="52" viewBox="0 0 48 52" fill="none" xmlns="http://www.w3.org/2000/svg">
<ellipse cx="24.14" cy="25.9695" rx="23.6878" ry="25.1764" fill="#F3CC00"/>
<path d="M36.847 25.8506H32.0623V21.7823C32.0623 19.5384 33.7788 17.714 35.8901 17.714H36.3685C37.164 17.714 37.804 17.0339 37.804 16.1884V13.1372C37.804 12.2917 37.164 11.6116 36.3685 11.6116H35.8901C30.603 11.6116 26.3207 16.163 26.3207 21.7823V37.0385C26.3207 38.723 27.6065 40.0897 29.1915 40.0897H36.847C38.4319 40.0897 39.7178 38.723 39.7178 37.0385V28.9019C39.7178 27.2173 38.4319 25.8506 36.847 25.8506ZM19.6221 25.8506H14.8374V21.7823C14.8374 19.5384 16.5539 17.714 18.6651 17.714H19.1436C19.939 17.714 20.579 17.0339 20.579 16.1884V13.1372C20.579 12.2917 19.939 11.6116 19.1436 11.6116H18.6651C13.378 11.6116 9.0957 16.163 9.0957 21.7823V37.0385C9.0957 38.723 10.3816 40.0897 11.9665 40.0897H19.6221C21.207 40.0897 22.4929 38.723 22.4929 37.0385V28.9019C22.4929 27.2173 21.207 25.8506 19.6221 25.8506Z" fill="white"/>
</svg>
