<svg width="28" height="32" viewBox="0 0 28 32" fill="none" xmlns="http://www.w3.org/2000/svg">
<path d="M27.0454 8.66529L27.0444 8.64044C27.0306 8.33367 27.0214 8.00912 27.0158 7.64802C26.9898 5.8871 25.5961 4.43051 23.8427 4.33207C20.1868 4.12715 17.3587 2.92981 14.9422 0.564131L14.9216 0.544394C14.1334 -0.181465 12.9445 -0.181465 12.156 0.544394L12.1354 0.564131C9.71896 2.92981 6.89082 4.12715 3.23495 4.33231C1.48174 4.43051 0.087807 5.8871 0.0618497 7.64826C0.0565126 8.00693 0.0470515 8.33148 0.0332238 8.64044L0.0317683 8.69819C-0.0393112 12.4425 -0.127615 17.1025 1.42449 21.3321C2.27793 23.6581 3.57046 25.68 5.26593 27.342C7.19697 29.2347 9.72623 30.7374 12.7834 31.808C12.8828 31.8428 12.9862 31.8711 13.0915 31.8923C13.2399 31.922 13.3894 31.9369 13.5388 31.9369C13.6882 31.9369 13.8379 31.922 13.9862 31.8923C14.0914 31.8711 14.1955 31.8426 14.2955 31.8075C17.349 30.7349 19.8756 29.2315 21.8049 27.339C23.4996 25.6766 24.7922 23.6542 25.6463 21.3277C27.2043 17.0854 27.1162 12.4167 27.0454 8.66529ZM23.8958 20.6794C22.2588 25.1373 18.9171 28.1989 13.6798 30.0385C13.6611 30.0449 13.6412 30.0505 13.6206 30.0546C13.5665 30.0653 13.5114 30.0653 13.4566 30.0544C13.4362 30.0502 13.4163 30.0449 13.3979 30.0385C8.15496 28.2023 4.81108 25.1425 3.17528 20.6842C1.74471 16.7855 1.82574 12.5078 1.8973 8.734L1.89779 8.71305C1.91234 8.38874 1.92205 8.04908 1.92738 7.6758C1.93903 6.89389 2.55909 6.24698 3.33903 6.20337C5.40785 6.08738 7.22535 5.68583 8.89536 4.97581C10.5632 4.26677 12.0444 3.26728 13.4233 1.92033C13.4934 1.86088 13.5844 1.86064 13.6543 1.92033C15.0334 3.26728 16.5147 4.26677 18.1823 4.97581C19.8523 5.68583 21.6698 6.08738 23.7388 6.20337C24.5188 6.24698 25.1388 6.89389 25.1502 7.67604C25.1558 8.05127 25.1655 8.39093 25.1801 8.71305C25.2514 12.4912 25.3305 16.7723 23.8958 20.6794Z" fill="#00AFA0"/>
<path d="M13.5389 8.33136C9.13628 8.33136 5.55469 11.9131 5.55469 16.3155C5.55469 20.718 9.13628 24.2998 13.5389 24.2998C17.9413 24.2998 21.5231 20.718 21.5231 16.3155C21.5231 11.9131 17.9413 8.33136 13.5389 8.33136ZM13.5389 22.4197C10.1729 22.4197 7.43458 19.6814 7.43458 16.3155C7.43458 12.9495 10.1729 10.2112 13.5389 10.2112C16.9047 10.2112 19.643 12.9495 19.643 16.3155C19.643 19.6814 16.9047 22.4197 13.5389 22.4197Z" fill="#00AFA0"/>
<path d="M15.8113 13.4666L12.2372 17.1723L11.2672 16.1665C10.9133 15.7996 10.3397 15.7996 9.9859 16.1665C9.63231 16.5333 9.63231 17.1281 9.9859 17.4947L11.5967 19.1648C11.7736 19.3482 12.0054 19.4398 12.2372 19.4398C12.469 19.4398 12.7008 19.3482 12.8778 19.1648L17.0926 14.7948C17.4462 14.428 17.4462 13.8332 17.0926 13.4666C16.7388 13.0995 16.1651 13.0995 15.8113 13.4666Z" fill="#00AFA0"/>
</svg>
