<svg width="496" height="310" viewBox="0 0 496 310" fill="none" xmlns="http://www.w3.org/2000/svg">
<path opacity="0.0399926" fill-rule="evenodd" clip-rule="evenodd" d="M429 619C665.93 619 858 426.93 858 190C858 -46.9302 665.93 -239 429 -239C192.07 -239 0 -46.9302 0 190C0 426.93 192.07 619 429 619Z" fill="white"/>
<path opacity="0.0399926" fill-rule="evenodd" clip-rule="evenodd" d="M429 514C607.94 514 753 368.94 753 190C753 11.0597 607.94 -134 429 -134C250.06 -134 105 11.0597 105 190C105 368.94 250.06 514 429 514Z" fill="white"/>
<path opacity="0.0399926" fill-rule="evenodd" clip-rule="evenodd" d="M429 381C534.486 381 620 295.486 620 190C620 84.5136 534.486 -1 429 -1C323.514 -1 238 84.5136 238 190C238 295.486 323.514 381 429 381Z" fill="white"/>
</svg>
