<svg width="60" height="60" viewBox="0 0 60 60" fill="none" xmlns="http://www.w3.org/2000/svg">
<rect x="0.5" y="0.5" width="59" height="59" rx="5.5" fill="#A299C7" fill-opacity="0.6" stroke="url(#paint0_linear)"/>
<g filter="url(#filter0_b)">
<ellipse cx="29.8" cy="29.8333" rx="19.8" ry="19.8333" fill="url(#paint1_linear)"/>
<path d="M49.1 29.8333C49.1 40.5116 40.4583 49.1667 29.8 49.1667C19.1417 49.1667 10.5 40.5116 10.5 29.8333C10.5 19.155 19.1417 10.5 29.8 10.5C40.4583 10.5 49.1 19.155 49.1 29.8333Z" stroke="url(#paint2_linear)"/>
</g>
<g clip-path="url(#clip0)">
<path d="M39.1981 26.5717L31.1721 23.1992C30.5732 22.9466 29.5584 22.9466 28.9586 23.1992L20.9344 26.5717C20.4084 26.7921 20.3294 27.1125 20.3302 27.2843C20.3302 27.4562 20.4083 27.7756 20.9344 27.9961L21.292 28.1463V31.1759C20.7443 31.3208 20.3354 31.8173 20.3354 32.4111C20.3354 32.7531 20.4726 33.0621 20.6914 33.2931C20.3042 34.2375 19.9813 35.4085 20.3797 36.0959C20.4405 36.2001 20.5499 36.2583 20.6627 36.2583C20.7157 36.2583 20.7695 36.2452 20.8207 36.2183C20.937 36.1541 21.3346 35.9701 21.6193 35.9701C21.9032 35.9701 22.2938 36.1489 22.4197 36.2183C22.5759 36.3043 22.7712 36.2487 22.8589 36.0951C23.2574 35.4067 22.9318 34.2322 22.5482 33.2913C22.7669 33.0604 22.9041 32.7522 22.9041 32.4102C22.9041 31.8165 22.4961 31.32 21.9466 31.1741V28.419L24.4613 29.4763L23.16 33.7759C23.1201 33.9095 23.1687 34.0545 23.2824 34.1352C23.4074 34.2246 26.3676 36.3227 30.068 36.3227C33.7684 36.3227 36.7296 34.2247 36.8536 34.1352C36.9664 34.0536 37.015 33.9087 36.9759 33.7759L35.6747 29.4763L39.2007 27.9954C39.7259 27.7749 39.8049 27.4546 39.8049 27.2836C39.8023 27.1134 39.7233 26.7923 39.1981 26.5718L39.1981 26.5717ZM21.6184 35.3172C21.3528 35.3172 21.0724 35.4005 20.8588 35.483C20.8093 35.0698 20.9578 34.4084 21.2607 33.6375C21.3762 33.6714 21.4934 33.6948 21.6184 33.6948C21.7442 33.6948 21.8632 33.6714 21.9778 33.6375C22.2798 34.4066 22.4283 35.0698 22.3788 35.483C22.1644 35.4005 21.884 35.3172 21.6184 35.3172ZM22.2486 32.4119C22.2486 32.76 21.9656 33.0421 21.6184 33.0421C21.2712 33.0421 20.9882 32.7591 20.9882 32.4119C20.9882 32.0647 21.2712 31.7817 21.6184 31.7817C21.9665 31.7808 22.2486 32.0647 22.2486 32.4119ZM36.279 33.7348C35.5767 34.1853 33.0377 35.6723 30.0663 35.6723C27.0959 35.6723 24.555 34.1862 23.8546 33.7348L25.0655 29.7321L28.9595 31.3693C29.2599 31.496 29.6522 31.5655 30.0663 31.5655C30.4803 31.5655 30.8736 31.496 31.1731 31.3693L35.0671 29.7321L36.279 33.7348ZM38.9457 27.3946L30.9188 30.7679C30.483 30.9528 29.6497 30.9528 29.2122 30.7679L21.1871 27.3946C21.0673 27.3442 21.0135 27.2991 20.9918 27.2921C21.0135 27.2687 21.0673 27.2236 21.1871 27.1732L29.2131 23.7999C29.6488 23.6159 30.4822 23.6159 30.9197 23.7999L38.9457 27.1732C39.0655 27.2236 39.1176 27.2687 39.141 27.2756C39.1176 27.2991 39.0646 27.3442 38.9457 27.3946Z" fill="#7466AA"/>
</g>
<defs>
<filter id="filter0_b" x="-2" y="-2" width="63.6" height="63.6667" filterUnits="userSpaceOnUse" color-interpolation-filters="sRGB">
<feFlood flood-opacity="0" result="BackgroundImageFix"/>
<feGaussianBlur in="BackgroundImage" stdDeviation="6"/>
<feComposite in2="SourceAlpha" operator="in" result="effect1_backgroundBlur"/>
<feBlend mode="normal" in="SourceGraphic" in2="effect1_backgroundBlur" result="shape"/>
</filter>
<linearGradient id="paint0_linear" x1="30" y1="0" x2="30" y2="60" gradientUnits="userSpaceOnUse">
<stop stop-color="white"/>
<stop offset="1" stop-color="white" stop-opacity="0"/>
</linearGradient>
<linearGradient id="paint1_linear" x1="10" y1="10" x2="19.0741" y2="54.6595" gradientUnits="userSpaceOnUse">
<stop stop-color="white" stop-opacity="0.3"/>
<stop offset="1" stop-color="white"/>
</linearGradient>
<linearGradient id="paint2_linear" x1="11.056" y1="10.4641" x2="19.736" y2="54.9479" gradientUnits="userSpaceOnUse">
<stop stop-color="white"/>
<stop offset="1" stop-color="white" stop-opacity="0"/>
</linearGradient>
<clipPath id="clip0">
<rect width="20" height="13.3333" fill="white" transform="translate(20 23)"/>
</clipPath>
</defs>
</svg>
